<svg width="35" height="38" viewBox="0 0 35 38" fill="none" xmlns="http://www.w3.org/2000/svg">
<path fill-rule="evenodd" clip-rule="evenodd" d="M17.0821 25.0047C16.4802 25.0047 15.9917 24.4846 15.9917 23.8438V12.5027C15.9917 11.8619 16.4802 11.3418 17.0821 11.3418C17.6839 11.3418 18.1724 11.8619 18.1724 12.5027V23.8438C18.1724 24.4846 17.6839 25.0047 17.0821 25.0047" fill="white"/>
<path fill-rule="evenodd" clip-rule="evenodd" d="M22.4129 19.3335H11.752C11.1487 19.3335 10.6616 18.8134 10.6616 18.1726C10.6616 17.5318 11.1487 17.0117 11.752 17.0117H22.4129C23.0148 17.0117 23.5032 17.5318 23.5032 18.1726C23.5032 18.8134 23.0148 19.3335 22.4129 19.3335" fill="white"/>
<path fill-rule="evenodd" clip-rule="evenodd" d="M10.2696 3.87061C6.2396 3.87061 3.63435 6.80688 3.63435 11.3545V25.022C3.63435 29.5696 6.2396 32.5059 10.2696 32.5059H23.8948C27.9263 32.5059 30.5301 29.5696 30.5301 25.022V11.3545C30.5301 6.80688 27.9263 3.87061 23.8948 3.87061H10.2696ZM23.8948 34.8277H10.2696C4.99658 34.8277 1.45361 30.8868 1.45361 25.022V11.3545C1.45361 5.48966 4.99658 1.54883 10.2696 1.54883H23.8948C29.1679 1.54883 32.7108 5.48966 32.7108 11.3545V25.022C32.7108 30.8868 29.1679 34.8277 23.8948 34.8277V34.8277Z" fill="white"/>
</svg>
