<svg width="58" height="58" viewBox="0 0 58 58" fill="none" xmlns="http://www.w3.org/2000/svg">
<rect width="58" height="58" rx="29" fill="#FF4949"/>
<mask id="mask0_1228_12868" style="mask-type:alpha" x="14" y="15" width="30" height="28">
<path fill-rule="evenodd" clip-rule="evenodd" d="M14.0737 15.5664H43.9471V42.7109H14.0737V15.5664Z" fill="white"/>
</mask>
<g mask="url(#mask0_1228_12868)">
<path fill-rule="evenodd" clip-rule="evenodd" d="M29.0191 17.8054C28.3086 17.8054 27.6758 18.1726 27.3205 18.789L16.5764 37.5441C16.2272 38.1561 16.2301 38.886 16.5839 39.4965C16.9377 40.107 17.5705 40.4727 18.2766 40.4727H39.7453C40.4498 40.4727 41.0827 40.107 41.4365 39.4965C41.7917 38.886 41.7947 38.1561 41.4424 37.5441L30.7178 18.789C30.364 18.1726 29.7311 17.8054 29.0191 17.8054ZM39.7453 42.7117H18.2766C16.763 42.7117 15.4062 41.9295 14.6464 40.619C13.8867 39.3099 13.8822 37.7442 14.633 36.4321L25.3801 17.6755C26.1353 16.3545 27.4951 15.5664 29.0191 15.5664H29.0206C30.5431 15.5664 31.9059 16.356 32.6612 17.6785L43.3874 36.4321C44.1382 37.7442 44.1337 39.3099 43.3739 40.619C42.6142 41.9295 41.2573 42.7117 39.7453 42.7117Z" fill="white"/>
</g>
<path fill-rule="evenodd" clip-rule="evenodd" d="M29.0062 32.2304C28.3882 32.2304 27.8867 31.7289 27.8867 31.1109V26.4837C27.8867 25.8658 28.3882 25.3643 29.0062 25.3643C29.6242 25.3643 30.1257 25.8658 30.1257 26.4837V31.1109C30.1257 31.7289 29.6242 32.2304 29.0062 32.2304Z" fill="white"/>
<path fill-rule="evenodd" clip-rule="evenodd" d="M29.0089 37.2084C28.1835 37.2084 27.5088 36.5412 27.5088 35.7158C27.5088 34.8904 28.17 34.2231 28.994 34.2231H29.0089C29.8343 34.2231 30.5015 34.8904 30.5015 35.7158C30.5015 36.5412 29.8343 37.2084 29.0089 37.2084Z" fill="white"/>
</svg>
