<svg width="35" height="29" viewBox="0 0 35 29" fill="none" xmlns="http://www.w3.org/2000/svg">
<path d="M34.6665 14.5713C34.6665 15.3623 34.0787 16.0161 33.316 16.1195L33.104 16.1338L1.85401 16.1338C0.991064 16.1338 0.291509 15.4342 0.291509 14.5713C0.291509 13.7803 0.87933 13.1265 1.64199 13.0231L1.85401 13.0088L33.104 13.0088C33.9669 13.0088 34.6665 13.7083 34.6665 14.5713Z" fill="white"/>
<path d="M15.56 26.0149C16.1715 26.6238 16.1736 27.6131 15.5648 28.2246C15.0112 28.7805 14.1433 28.8328 13.5306 28.3802L13.355 28.2293L0.750881 15.6793C0.193304 15.1242 0.142581 14.2531 0.598736 13.6404L0.750789 13.465L13.355 0.91288C13.9664 0.303951 14.9557 0.305999 15.5647 0.917455C16.1182 1.47332 16.1669 2.34148 15.7117 2.95223L15.5601 3.12716L4.06835 14.5727L15.56 26.0149Z" fill="white"/>
</svg>
