<svg width="41" height="34" viewBox="0 0 41 34" fill="none" xmlns="http://www.w3.org/2000/svg">
<path d="M0.666504 17.3369C0.666504 16.4193 1.34838 15.661 2.23306 15.541L2.479 15.5244L38.729 15.5244C39.73 15.5244 40.5415 16.3359 40.5415 17.3369C40.5415 18.2545 39.8596 19.0129 38.975 19.1329L38.729 19.1494L2.479 19.1494C1.47799 19.1494 0.666504 18.3379 0.666504 17.3369Z" fill="#6D71F9"/>
<path d="M22.83 4.06245C22.1207 3.35615 22.1182 2.20855 22.8245 1.4992C23.4666 0.854336 24.4734 0.793671 25.1841 1.31862L25.3878 1.49368L40.0086 16.0517C40.6554 16.6957 40.7142 17.7061 40.1851 18.4168L40.0087 18.6203L25.3879 33.1808C24.6786 33.8871 23.531 33.8847 22.8246 33.1755C22.1825 32.5307 22.126 31.5236 22.654 30.8151L22.8299 30.6122L36.1603 17.3353L22.83 4.06245Z" fill="#6D71F9"/>
</svg>
