<svg width="20" height="20" viewBox="0 0 20 20" fill="none" xmlns="http://www.w3.org/2000/svg">
<path fill-rule="evenodd" clip-rule="evenodd" d="M2.38772 19.9919C1.77776 19.9919 1.1678 19.7601 0.703977 19.2932C-0.226847 18.3625 -0.226847 16.857 0.703977 15.9263L15.9276 0.705792C16.8584 -0.224847 18.3642 -0.224847 19.295 0.705792C20.2259 1.63643 20.2259 3.14197 19.295 4.07261L4.07146 19.2932C3.60764 19.7601 2.99768 19.9919 2.38772 19.9919Z" fill="#BFBFBF"/>
<path fill-rule="evenodd" clip-rule="evenodd" d="M17.6181 20C17.0082 20 16.3982 19.7681 15.9344 19.3012L0.698118 4.0648C-0.232706 3.13416 -0.232706 1.62862 0.698118 0.697979C1.63212 -0.23266 3.13796 -0.23266 4.0656 0.697979L19.3019 15.9344C20.2327 16.865 20.2327 18.3706 19.3019 19.3012C18.8381 19.7681 18.2249 20 17.6181 20Z" fill="#BFBFBF"/>
</svg>
