<svg width="100" height="100" viewBox="0 0 100 100" fill="none" xmlns="http://www.w3.org/2000/svg">
<path d="M77 14C77.5523 14 78 13.5523 78 13C78 12.4477 77.5523 12 77 12C76.4477 12 76 12.4477 76 13C76 13.5523 76.4477 14 77 14Z" fill="#F1BC19"/>
<path d="M50 87C70.4345 87 87 70.4345 87 50C87 29.5655 70.4345 13 50 13C29.5655 13 13 29.5655 13 50C13 70.4345 29.5655 87 50 87Z" fill="#E4E4F9"/>
<path d="M83 19C85.2091 19 87 17.2091 87 15C87 12.7909 85.2091 11 83 11C80.7909 11 79 12.7909 79 15C79 17.2091 80.7909 19 83 19Z" fill="#F1BC19"/>
<path d="M87 26C88.1046 26 89 25.1046 89 24C89 22.8954 88.1046 22 87 22C85.8954 22 85 22.8954 85 24C85 25.1046 85.8954 26 87 26Z" fill="#8889B9"/>
<path d="M81 78C82.1046 78 83 77.1046 83 76C83 74.8954 82.1046 74 81 74C79.8954 74 79 74.8954 79 76C79 77.1046 79.8954 78 81 78Z" fill="#FBCD59"/>
<path d="M15 67C17.2091 67 19 65.2091 19 63C19 60.7909 17.2091 59 15 59C12.7909 59 11 60.7909 11 63C11 65.2091 12.7909 67 15 67Z" fill="#FBCD59"/>
<path d="M25 89C26.1046 89 27 88.1046 27 87C27 85.8954 26.1046 85 25 85C23.8954 85 23 85.8954 23 87C23 88.1046 23.8954 89 25 89Z" fill="#8889B9"/>
<path d="M23.5 70C24.8807 70 26 68.8807 26 67.5C26 66.1193 24.8807 65 23.5 65C22.1193 65 21 66.1193 21 67.5C21 68.8807 22.1193 70 23.5 70Z" fill="white"/>
<path d="M77.5 32C78.3284 32 79 31.3284 79 30.5C79 29.6716 78.3284 29 77.5 29C76.6716 29 76 29.6716 76 30.5C76 31.3284 76.6716 32 77.5 32Z" fill="white"/>
<path d="M50.254 48.499H49.745C45.743 48.499 42.499 45.255 42.499 41.253V31.744C42.499 27.742 45.743 24.498 49.745 24.498H50.254C54.256 24.498 57.5 27.742 57.5 31.744V41.253C57.5 45.255 54.256 48.499 50.254 48.499Z" fill="#EF9922"/>
<path d="M50.254 75.499H49.745C45.743 75.499 42.499 72.255 42.499 68.253V58.744C42.499 54.742 45.743 51.498 49.745 51.498H50.254C54.256 51.498 57.5 54.742 57.5 58.744V68.253C57.5 72.255 54.256 75.499 50.254 75.499Z" fill="#78A0CF"/>
<path d="M48.5 49.746V50.255C48.5 54.257 45.256 57.501 41.254 57.501H31.745C27.743 57.501 24.499 54.257 24.499 50.255V49.746C24.499 45.744 27.743 42.5 31.745 42.5H41.254C45.256 42.5 48.5 45.744 48.5 49.746Z" fill="#8889B9"/>
<path d="M75.5 49.746V50.255C75.5 54.257 72.256 57.501 68.254 57.501H58.745C54.743 57.501 51.499 54.257 51.499 50.255V49.746C51.499 45.744 54.743 42.5 58.745 42.5H68.254C72.256 42.5 75.5 45.744 75.5 49.746Z" fill="#88AE45"/>
<path d="M51.2398 49.1195L50.8798 48.7595C48.0498 45.9295 48.0498 41.3425 50.8798 38.5125L57.6038 31.7885C60.4338 28.9585 65.0208 28.9585 67.8508 31.7885L68.2108 32.1485C71.0408 34.9785 71.0408 39.5655 68.2108 42.3955L61.4868 49.1195C58.6578 51.9495 54.0698 51.9495 51.2398 49.1195Z" fill="#FFCE00"/>
<path d="M32.149 68.2113L31.789 67.8513C28.959 65.0213 28.959 60.4343 31.789 57.6043L38.513 50.8803C41.343 48.0503 45.93 48.0503 48.76 50.8803L49.12 51.2403C51.95 54.0703 51.95 58.6573 49.12 61.4873L42.396 68.2113C39.566 71.0413 34.978 71.0413 32.149 68.2113Z" fill="#A1A1CA"/>
<path d="M49.119 48.7595L48.759 49.1195C45.929 51.9495 41.342 51.9495 38.512 49.1195L31.788 42.3955C28.958 39.5655 28.958 34.9785 31.788 32.1485L32.148 31.7885C34.978 28.9585 39.565 28.9585 42.395 31.7885L49.119 38.5125C51.949 41.3415 51.949 45.9295 49.119 48.7595Z" fill="#EE3E54"/>
<path d="M68.2108 67.8513L67.8508 68.2113C65.0208 71.0413 60.4338 71.0413 57.6038 68.2113L50.8798 61.4873C48.0498 58.6573 48.0498 54.0703 50.8798 51.2403L51.2398 50.8803C54.0698 48.0503 58.6568 48.0503 61.4868 50.8803L68.2108 57.6043C71.0408 60.4343 71.0408 65.0223 68.2108 67.8513Z" fill="#00A5A5"/>
<path d="M50.254 48.75H49.745C45.612 48.75 42.249 45.387 42.249 41.254V34C42.249 33.862 42.361 33.75 42.499 33.75C42.637 33.75 42.749 33.862 42.749 34V41.254C42.749 45.111 45.887 48.25 49.745 48.25H50.254C54.111 48.25 57.25 45.112 57.25 41.254V39C57.25 38.862 57.362 38.75 57.5 38.75C57.638 38.75 57.75 38.862 57.75 39V41.254C57.75 45.387 54.388 48.75 50.254 48.75Z" fill="#472B29"/>
<path d="M57.5002 36.938C57.3622 36.938 57.2502 36.826 57.2502 36.688V31.746C57.2502 27.889 54.1112 24.75 50.2542 24.75H49.7452C46.4672 24.75 43.6642 26.977 42.9292 30.166C42.8982 30.301 42.7672 30.386 42.6292 30.354C42.4942 30.323 42.4112 30.189 42.4412 30.054C43.2292 26.637 46.2332 24.25 49.7452 24.25H50.2542C54.3872 24.25 57.7502 27.613 57.7502 31.746V36.688C57.7502 36.826 57.6382 36.938 57.5002 36.938Z" fill="#472B29"/>
<path d="M50.254 75.749H49.745C45.612 75.749 42.249 72.386 42.249 68.253V58.744C42.249 54.611 45.611 51.248 49.745 51.248H50.254C54.387 51.248 57.75 54.611 57.75 58.744V68.253C57.75 72.386 54.388 75.749 50.254 75.749ZM49.746 51.749C45.889 51.749 42.75 54.887 42.75 58.745V68.254C42.75 72.111 45.888 75.25 49.746 75.25H50.255C54.112 75.25 57.251 72.112 57.251 68.254V58.745C57.251 54.888 54.112 51.749 50.255 51.749H49.746V51.749Z" fill="#472B29"/>
<path d="M41.254 57.749H38.687C38.549 57.749 38.437 57.637 38.437 57.499C38.437 57.361 38.549 57.249 38.687 57.249H41.254C45.111 57.249 48.25 54.111 48.25 50.253V49.744C48.25 45.887 45.112 42.748 41.254 42.748H31.745C27.888 42.748 24.749 45.886 24.749 49.744V50.253C24.749 54.11 27.887 57.249 31.745 57.249H35.624C35.762 57.249 35.874 57.361 35.874 57.499C35.874 57.637 35.762 57.749 35.624 57.749H31.745C27.612 57.749 24.249 54.386 24.249 50.253V49.744C24.249 45.611 27.611 42.248 31.745 42.248H41.254C45.387 42.248 48.75 45.611 48.75 49.744V50.253C48.75 54.386 45.388 57.749 41.254 57.749Z" fill="#472B29"/>
<path d="M62.438 57.749H58.747C54.613 57.749 51.251 54.386 51.251 50.253V49.744C51.251 45.611 54.613 42.248 58.747 42.248H65.438C65.576 42.248 65.688 42.36 65.688 42.498C65.688 42.636 65.576 42.748 65.438 42.748H58.747C54.89 42.748 51.751 45.886 51.751 49.744V50.253C51.751 54.11 54.89 57.249 58.747 57.249H62.438C62.576 57.249 62.688 57.361 62.688 57.499C62.688 57.637 62.575 57.749 62.438 57.749Z" fill="#472B29"/>
<path d="M68.254 57.749H65C64.862 57.749 64.75 57.637 64.75 57.499C64.75 57.361 64.862 57.249 65 57.249H68.254C72.111 57.249 75.25 54.111 75.25 50.253V49.744C75.25 45.887 72.111 42.748 68.254 42.748C68.116 42.748 68.004 42.636 68.004 42.498C68.004 42.36 68.116 42.248 68.254 42.248C72.388 42.248 75.75 45.611 75.75 49.744V50.253C75.75 54.386 72.388 57.749 68.254 57.749Z" fill="#472B29"/>
<path d="M56.3642 51.4911C54.3622 51.4911 52.4792 50.7111 51.0632 49.2961L50.7042 48.9361C48.8382 47.0701 48.0882 44.3221 48.7452 41.7631C48.7792 41.6291 48.9192 41.5491 49.0492 41.5831C49.1832 41.6171 49.2632 41.7541 49.2292 41.8871C48.6152 44.2751 49.3162 46.8411 51.0572 48.5821L51.4162 48.9421C52.7372 50.2631 54.4942 50.9911 56.3632 50.9911C58.2312 50.9911 59.9882 50.2631 61.3092 48.9421L68.0332 42.2181C69.3542 40.8971 70.0822 39.1401 70.0822 37.2711C70.0822 35.4031 69.3542 33.6461 68.0332 32.3241L67.6742 31.9641C66.3532 30.6431 64.5962 29.9151 62.7272 29.9151C60.8592 29.9151 59.1022 30.6431 57.7812 31.9641L51.0572 38.6871C50.9592 38.7851 50.8012 38.7851 50.7032 38.6871C50.6052 38.5891 50.6052 38.4311 50.7032 38.3331L57.4272 31.6101C58.8422 30.1941 60.7252 29.4141 62.7272 29.4141C64.7292 29.4141 66.6122 30.1941 68.0282 31.6101L68.3872 31.9701C69.8032 33.3861 70.5822 35.2681 70.5822 37.2701C70.5822 39.2721 69.8032 41.1551 68.3872 42.5701L61.6632 49.2941C60.2492 50.7121 58.3662 51.4911 56.3642 51.4911Z" fill="#472B29"/>
<path d="M37.272 70.5836C35.27 70.5836 33.387 69.8036 31.972 68.3876L31.613 68.0276C30.197 66.6116 29.418 64.7296 29.418 62.7276C29.418 60.7256 30.198 58.8426 31.613 57.4276L38.337 50.7036C41.26 47.7806 46.014 47.7816 48.937 50.7036L49.297 51.0636C51.357 53.1236 52.037 56.2206 51.032 58.9556C50.984 59.0856 50.842 59.1526 50.711 59.1036C50.582 59.0556 50.515 58.9126 50.563 58.7826C51.501 56.2306 50.866 53.3396 48.944 51.4166L48.584 51.0566C47.263 49.7356 45.506 49.0076 43.637 49.0076C41.769 49.0076 40.012 49.7356 38.691 51.0566L31.967 57.7806C30.646 59.1016 29.918 60.8586 29.918 62.7276C29.918 64.5956 30.646 66.3526 31.967 67.6746L32.326 68.0346C33.647 69.3556 35.404 70.0836 37.273 70.0836C39.142 70.0836 40.898 69.3556 42.22 68.0346L48.944 61.3116C49.042 61.2136 49.2 61.2136 49.298 61.3116C49.396 61.4096 49.396 61.5676 49.298 61.6656L42.574 68.3886C41.157 69.8036 39.274 70.5836 37.272 70.5836Z" fill="#472B29"/>
<path d="M43.6359 51.488C41.7159 51.488 39.7969 50.758 38.3359 49.296L31.6119 42.572C28.6899 39.649 28.6899 34.894 31.6119 31.972L31.9709 31.612C33.3869 30.196 35.2689 29.416 37.2709 29.416C39.2729 29.416 41.1559 30.196 42.5709 31.612L49.2949 38.335C50.7109 39.751 51.4909 41.633 51.4909 43.635C51.4909 45.637 50.7109 47.52 49.2949 48.935L48.9349 49.295C47.4749 50.757 45.5549 51.488 43.6359 51.488ZM37.2719 29.917C35.4029 29.917 33.6469 30.645 32.3249 31.966L31.9659 32.326C29.2379 35.054 29.2379 39.492 31.9659 42.219L38.6899 48.943C40.0109 50.264 41.7679 50.992 43.6359 50.992C45.5049 50.992 47.2609 50.264 48.5829 48.943L48.9429 48.583C50.2639 47.262 50.9919 45.505 50.9919 43.636C50.9919 41.768 50.2639 40.011 48.9429 38.689L42.2189 31.966C40.8969 30.645 39.1409 29.917 37.2719 29.917Z" fill="#472B29"/>
<path d="M62.7282 70.5828C60.7262 70.5828 58.8432 69.8028 57.4282 68.3868L50.7042 61.6638C47.7822 58.7408 47.7822 53.9858 50.7042 51.0628L51.0632 50.7028C52.4792 49.2868 54.3622 48.5078 56.3642 48.5078C58.3662 48.5078 60.2492 49.2878 61.6642 50.7028L68.3882 57.4268C69.8042 58.8428 70.5842 60.7248 70.5842 62.7268C70.5842 64.7288 69.8042 66.6108 68.3882 68.0268L68.0292 68.3868C66.6122 69.8028 64.7292 70.5828 62.7282 70.5828ZM56.3642 49.0088C54.4952 49.0088 52.7382 49.7368 51.4172 51.0578L51.0582 51.4178C48.3302 54.1458 48.3302 58.5838 51.0582 61.3118L57.7822 68.0348C59.1032 69.3558 60.8602 70.0838 62.7282 70.0838C64.5972 70.0838 66.3542 69.3558 67.6752 68.0348L68.0342 67.6748C69.3552 66.3538 70.0842 64.5968 70.0842 62.7278C70.0842 60.8588 69.3552 59.1028 68.0342 57.7808L61.3102 51.0568C59.9892 49.7358 58.2322 49.0088 56.3642 49.0088Z" fill="#472B29"/>
</svg>
