<svg width="36" height="36" viewBox="0 0 36 36" fill="none" xmlns="http://www.w3.org/2000/svg">
<mask id="mask0_1531_48139" style="mask-type:alpha" x="3" y="4" width="30" height="28">
<path fill-rule="evenodd" clip-rule="evenodd" d="M3.07324 4.56641H32.9467V31.7109H3.07324V4.56641Z" fill="white"/>
</mask>
<g mask="url(#mask0_1531_48139)">
<path fill-rule="evenodd" clip-rule="evenodd" d="M18.0186 6.80538C17.3081 6.80538 16.6753 7.17257 16.32 7.78903L5.57594 26.5441C5.22666 27.1561 5.22965 27.886 5.58341 28.4965C5.93716 29.107 6.57005 29.4727 7.27607 29.4727H28.7448C29.4493 29.4727 30.0822 29.107 30.436 28.4965C30.7912 27.886 30.7942 27.1561 30.4419 26.5441L19.7173 7.78903C19.3635 7.17257 18.7306 6.80538 18.0186 6.80538ZM28.7448 31.7117H7.27607C5.76252 31.7117 4.40571 30.9295 3.64595 29.619C2.88619 28.3099 2.88171 26.7442 3.63252 25.4321L14.3796 6.67552C15.1349 5.35452 16.4947 4.56641 18.0186 4.56641H18.0201C19.5426 4.56641 20.9054 5.35602 21.6607 6.6785L32.3869 25.4321C33.1377 26.7442 33.1332 28.3099 32.3734 29.619C31.6137 30.9295 30.2569 31.7117 28.7448 31.7117Z" fill="white"/>
</g>
<path fill-rule="evenodd" clip-rule="evenodd" d="M18.0057 21.2295C17.3878 21.2295 16.8862 20.7279 16.8862 20.11V15.4828C16.8862 14.8648 17.3878 14.3633 18.0057 14.3633C18.6237 14.3633 19.1252 14.8648 19.1252 15.4828V20.11C19.1252 20.7279 18.6237 21.2295 18.0057 21.2295Z" fill="white"/>
<path fill-rule="evenodd" clip-rule="evenodd" d="M18.0084 26.208C17.183 26.208 16.5083 25.5407 16.5083 24.7153C16.5083 23.8899 17.1695 23.2227 17.9935 23.2227H18.0084C18.8338 23.2227 19.5011 23.8899 19.5011 24.7153C19.5011 25.5407 18.8338 26.208 18.0084 26.208Z" fill="white"/>
</svg>
