<svg width="21" height="19" viewBox="0 0 21 19" fill="none" xmlns="http://www.w3.org/2000/svg">
<path fill-rule="evenodd" clip-rule="evenodd" d="M10.0039 13.541C9.58991 13.541 9.25391 13.205 9.25391 12.791V0.75C9.25391 0.336 9.58991 0 10.0039 0C10.4179 0 10.7539 0.336 10.7539 0.75V12.791C10.7539 13.205 10.4179 13.541 10.0039 13.541" fill="white"/>
<path fill-rule="evenodd" clip-rule="evenodd" d="M10.0038 13.541C9.80476 13.541 9.61276 13.462 9.47276 13.32L6.55676 10.393C6.26476 10.099 6.26576 9.62403 6.55876 9.33203C6.85276 9.04003 7.32676 9.04003 7.61876 9.33403L10.0038 11.729L12.3888 9.33403C12.6808 9.04003 13.1548 9.04003 13.4488 9.33203C13.7418 9.62403 13.7428 10.099 13.4508 10.393L10.5348 13.32C10.3948 13.462 10.2028 13.541 10.0038 13.541" fill="white"/>
<mask id="mask0_1532_48249" style="mask-type:alpha" x="0" y="4" width="21" height="15">
<path fill-rule="evenodd" clip-rule="evenodd" d="M0.00292969 4.73242H20.0027V18.4764H0.00292969V4.73242Z" fill="white"/>
</mask>
<g mask="url(#mask0_1532_48249)">
<path fill-rule="evenodd" clip-rule="evenodd" d="M15.5779 18.4764H4.43793C1.99293 18.4764 0.00292969 16.4874 0.00292969 14.0414V9.15642C0.00292969 6.71642 1.98793 4.73242 4.42893 4.73242H5.36993C5.78393 4.73242 6.11993 5.06842 6.11993 5.48242C6.11993 5.89642 5.78393 6.23242 5.36993 6.23242H4.42893C2.81493 6.23242 1.50293 7.54342 1.50293 9.15642V14.0414C1.50293 15.6604 2.81893 16.9764 4.43793 16.9764H15.5779C17.1899 16.9764 18.5029 15.6634 18.5029 14.0514V9.16742C18.5029 7.54842 17.1859 6.23242 15.5689 6.23242H14.6369C14.2229 6.23242 13.8869 5.89642 13.8869 5.48242C13.8869 5.06842 14.2229 4.73242 14.6369 4.73242H15.5689C18.0139 4.73242 20.0029 6.72242 20.0029 9.16742V14.0514C20.0029 16.4914 18.0169 18.4764 15.5779 18.4764" fill="white"/>
</g>
</svg>
