<svg width="20" height="20" viewBox="0 0 20 20" fill="none" xmlns="http://www.w3.org/2000/svg">
<mask id="mask0_1128_29696" style="mask-type:alpha" x="1" y="1" width="18" height="18">
<path fill-rule="evenodd" clip-rule="evenodd" d="M1.66699 1.66684H18.3V18.2917H1.66699V1.66684Z" fill="white"/>
</mask>
<g mask="url(#mask0_1128_29696)">
<path fill-rule="evenodd" clip-rule="evenodd" d="M6.37533 2.91669C4.27449 2.91669 2.91699 4.35585 2.91699 6.58252V13.3759C2.91699 15.6034 4.27449 17.0417 6.37533 17.0417H13.5837C15.6895 17.0417 17.0503 15.6034 17.0503 13.3759V6.58252C17.0503 4.35585 15.6895 2.91669 13.5837 2.91669H6.37533ZM13.5837 18.2917H6.37533C3.55866 18.2917 1.66699 16.3159 1.66699 13.3759V6.58252C1.66699 3.64252 3.55866 1.66669 6.37533 1.66669H13.5837C16.4045 1.66669 18.3003 3.64252 18.3003 6.58252V13.3759C18.3003 16.3159 16.4045 18.2917 13.5837 18.2917V18.2917Z" fill="white"/>
</g>
<path fill-rule="evenodd" clip-rule="evenodd" d="M4.40137 14.317C4.24637 14.317 4.09221 14.2603 3.97137 14.1453C3.72054 13.9087 3.71054 13.512 3.94804 13.2628L5.22137 11.9187C5.89554 11.2028 7.03304 11.1678 7.75221 11.8428L8.55054 12.6528C8.77304 12.8778 9.13471 12.882 9.35804 12.662C9.44221 12.5628 11.2572 10.3587 11.2572 10.3587C11.6022 9.94034 12.0889 9.68201 12.6297 9.62868C13.1714 9.58118 13.6972 9.73868 14.1164 10.0828C14.1522 10.112 14.1847 10.1403 16.0147 12.0195C16.2555 12.2662 16.2514 12.662 16.0039 12.9028C15.7572 13.1453 15.3605 13.1378 15.1197 12.8912C15.1197 12.8912 13.4122 11.1387 13.2905 11.0203C13.1614 10.9145 12.9539 10.8528 12.7497 10.8728C12.5422 10.8937 12.3555 10.9928 12.223 11.1537C10.2864 13.5028 10.263 13.5253 10.2314 13.5562C9.51637 14.2578 8.36221 14.2462 7.65971 13.5295C7.65971 13.5295 6.88471 12.7428 6.87137 12.727C6.67887 12.5487 6.33554 12.5603 6.12971 12.7778L4.85471 14.122C4.73137 14.252 4.56637 14.317 4.40137 14.317V14.317Z" fill="white"/>
<path fill-rule="evenodd" clip-rule="evenodd" d="M7.13124 6.77408C6.67041 6.77408 6.29541 7.14908 6.29541 7.61074C6.29541 8.07241 6.67041 8.44825 7.13208 8.44825C7.59374 8.44825 7.96958 8.07241 7.96958 7.61074C7.96958 7.14991 7.59374 6.77491 7.13124 6.77408M7.13208 9.69825C5.98124 9.69825 5.04541 8.76158 5.04541 7.61075C5.04541 6.45991 5.98124 5.52408 7.13208 5.52408C8.28374 5.52491 9.21958 6.46158 9.21958 7.61075C9.21958 8.76158 8.28291 9.69825 7.13208 9.69825" fill="white"/>
</svg>
