<svg width="24" height="24" viewBox="0 0 24 24" fill="none" xmlns="http://www.w3.org/2000/svg">
<path fill-rule="evenodd" clip-rule="evenodd" d="M20.751 21.9395H13.498C13.084 21.9395 12.748 21.6035 12.748 21.1895C12.748 20.7755 13.084 20.4395 13.498 20.4395H20.751C21.165 20.4395 21.501 20.7755 21.501 21.1895C21.501 21.6035 21.165 21.9395 20.751 21.9395Z" fill="white"/>
<mask id="mask0_1531_48149" style="mask-type:alpha" x="2" y="3" width="18" height="19">
<path fill-rule="evenodd" clip-rule="evenodd" d="M2.00049 3H19.1811V21.9395H2.00049V3Z" fill="white"/>
</mask>
<g mask="url(#mask0_1531_48149)">
<path fill-rule="evenodd" clip-rule="evenodd" d="M13.1108 5.01664L3.69576 16.7916C3.52476 17.0056 3.46176 17.2816 3.52476 17.5466L4.20576 20.4316L7.24476 20.3936C7.53376 20.3906 7.80076 20.2616 7.97776 20.0416C11.1948 16.0166 17.3278 8.34264 17.5018 8.11764C17.6658 7.85164 17.7298 7.47564 17.6438 7.11364C17.5558 6.74264 17.3248 6.42764 16.9918 6.22664C16.9208 6.17764 15.2358 4.86964 15.1838 4.82864C14.5498 4.32064 13.6248 4.40864 13.1108 5.01664ZM3.61376 21.9396C3.26676 21.9396 2.96476 21.7016 2.88376 21.3626L2.06476 17.8916C1.89576 17.1726 2.06376 16.4306 2.52476 15.8546L11.9448 4.07264C11.9488 4.06864 11.9518 4.06364 11.9558 4.05964C12.9888 2.82464 14.8568 2.64264 16.1168 3.65364C16.1668 3.69264 17.8398 4.99264 17.8398 4.99264C18.4478 5.35464 18.9228 6.00164 19.1028 6.76764C19.2818 7.52564 19.1518 8.30764 18.7348 8.96864C18.7038 9.01764 18.6768 9.05964 9.14876 20.9796C8.68976 21.5516 8.00176 21.8846 7.26276 21.8936L3.62376 21.9396H3.61376Z" fill="white"/>
</g>
<path fill-rule="evenodd" clip-rule="evenodd" d="M16.2234 11.6854C16.0634 11.6854 15.9034 11.6344 15.7664 11.5304L10.3144 7.34236C9.98642 7.09036 9.92442 6.62036 10.1764 6.29036C10.4294 5.96236 10.8994 5.90136 11.2284 6.15336L16.6814 10.3404C17.0094 10.5924 17.0714 11.0634 16.8184 11.3924C16.6714 11.5844 16.4484 11.6854 16.2234 11.6854Z" fill="white"/>
</svg>
