<svg width="65" height="48" viewBox="0 0 65 48" fill="none" xmlns="http://www.w3.org/2000/svg">
<path d="M36.2825 22.3418C36.349 23.3611 36.3925 24.0414 36.4681 25.2279C38.4517 25.2279 40.417 25.347 42.3594 25.1958C44.3476 25.0401 45.864 25.6081 46.7321 27.4223C47.9759 30.0243 50.2642 29.864 52.4677 29.5044C53.1365 29.3944 53.7252 28.3545 54.2154 27.649C55.9104 25.2073 58.9179 24.3071 61.5475 25.5188C64.1404 26.7122 65.446 29.4631 64.7291 32.2279C64.003 35.0361 61.3138 37.061 58.4712 36.454C57.0167 36.1447 55.3652 35.2216 54.5063 34.0557C53.4732 32.6516 52.4379 32.0858 50.8803 32.347C48.0354 32.8211 46.0678 31.7789 44.5492 29.3303C44.1025 28.6088 42.8107 28.0728 41.8876 28.0453C37.5011 27.9147 33.1078 27.9697 28.7191 28.0063C27.7937 28.0132 26.3873 27.7452 26.6782 29.3257C26.7698 29.8296 27.9495 30.3862 28.6802 30.4664C30.2561 30.6405 31.8663 30.5191 33.8316 30.5191C33.3644 31.8705 33.0276 32.8417 32.6268 34.0031C36.1153 34.4268 37.5194 37.4481 39.7069 39.4775C41.7776 41.3993 41.899 41.4566 43.4291 39.1935C44.9844 36.8892 47.5315 35.8882 50.0443 36.5914C52.3967 37.2511 54.236 39.6195 54.2956 42.0658C54.3551 44.5671 52.7151 46.8623 50.2825 47.68C47.6758 48.5573 45.2066 47.5907 43.397 45.2703C42.8358 44.5511 41.7478 44.251 40.9186 43.7311C40.0391 43.1791 38.9236 42.7782 38.3555 41.9903C35.4763 37.9978 31.7541 36.2845 26.85 37.1663C25.8032 37.3541 24.6831 37.1114 23.6272 37.2763C23.2034 37.3427 22.5002 38.0574 22.5666 38.3139C22.6972 38.8224 23.2332 39.5508 23.6684 39.5989C25.1916 39.7684 26.7492 39.7936 28.2793 39.6768C30.0682 39.5393 31.2479 39.9402 31.4815 41.9719C31.5754 42.7782 32.0335 43.541 32.5352 44.8855C29.5712 45.6391 26.7996 46.3996 23.9982 47.0318C22.8049 47.2998 21.545 47.254 20.3265 47.4281C17.903 47.7762 15.8599 47.7923 15.1269 44.6519C14.6871 42.769 13.0127 42.1391 11.0703 42.5652C10.3946 42.7141 9.7074 42.8103 9.02252 42.9179C5.34158 43.4974 5.18124 43.344 5.2889 39.5256C5.29806 39.1637 5.27286 38.6392 5.04839 38.4605C3.16783 36.9556 3.54578 34.7658 3.12431 32.7845C2.95481 31.9851 2.16686 31.0368 1.41555 30.7001C-0.164941 29.9946 -0.396288 29.1081 0.593237 27.8712C3.14035 24.6896 3.76567 21.0865 3.77483 17.0712C3.78628 11.9609 6.47312 8.08301 11.0268 5.82451C17.9878 2.37034 24.7495 3.00482 31.0807 7.53327C33.3918 9.18706 37.0499 9.26723 39.0747 7.25841C41.2325 5.11673 43.5459 3.95999 46.6748 4.34022C47.4582 4.43643 48.6379 3.6668 49.1761 2.94985C51.0429 0.457715 53.4893 -0.568458 56.1853 0.308829C58.6041 1.09678 60.196 3.38277 60.1205 5.95736C60.0472 8.46553 58.4483 10.5866 56.0868 11.3104C53.345 12.1488 50.8964 11.1455 49.1876 8.48615C48.2187 6.97896 44.1804 6.22765 42.9046 7.78753C39.6291 11.7937 35.3411 11.5853 30.9341 11.4066C29.4727 11.3471 27.9953 11.2967 26.5499 11.4547C25.9567 11.5189 25.4253 12.1488 24.8664 12.5221C25.4115 12.9963 25.9338 13.8392 26.5087 13.8781C28.8863 14.0385 31.2799 13.9972 33.6667 13.9469C34.954 13.9194 35.8657 14.1232 36.2184 15.619C36.3467 16.1618 37.1759 16.8948 37.721 16.9269C40.1651 17.0689 42.5358 17.5476 44.2606 14.6203C45.9556 11.7479 50.1267 11.7708 52.5822 14.098C55.0194 16.4046 55.0033 20.2299 52.5501 22.5411C50.1588 24.795 45.9648 24.7056 44.1873 21.9341C42.9046 19.9321 41.4088 19.703 39.3954 19.726C33.2338 19.7947 27.0722 19.7282 20.9106 19.7626C19.9508 19.7672 18.3955 19.3228 18.6727 21.0865C18.7551 21.6065 20.0791 22.2685 20.8441 22.2845C25.9177 22.3945 30.9913 22.3418 36.2825 22.3418ZM62.2255 30.7253C62.214 29.0302 60.8443 27.649 59.1584 27.6376C57.3649 27.6238 55.9883 29.0738 56.0593 30.9039C56.1234 32.6127 57.5023 33.9068 59.2294 33.8862C60.8855 33.8679 62.2369 32.4432 62.2255 30.7253ZM51.5308 42.091C51.4919 40.4166 50.0763 39.0767 48.3882 39.1133C46.6955 39.15 45.2982 40.5312 45.2913 42.1781C45.2822 43.8868 46.8466 45.3643 48.5852 45.2933C50.2206 45.2245 51.5721 43.7586 51.5308 42.091ZM54.2772 2.68185C52.5822 2.70247 51.217 4.07223 51.2079 5.76496C51.1987 7.46685 52.5616 8.89158 54.2177 8.90532C56.0662 8.92136 57.4176 7.54473 57.3718 5.69395C57.3283 3.94167 56.0135 2.66124 54.2772 2.68185ZM51.6545 18.2463C51.6408 16.5306 50.2985 15.1906 48.592 15.1883C46.8512 15.1861 45.5639 16.4734 45.541 18.2371C45.5181 20.0787 46.9153 21.492 48.6997 21.4256C50.3878 21.3614 51.6683 19.9825 51.6545 18.2463Z" fill="white"/>
</svg>
