<svg width="60" height="59" viewBox="0 0 60 59" fill="none" xmlns="http://www.w3.org/2000/svg">
<path d="M10.9767 15.2228H11.4767V14.7228V12.6646C11.4767 9.55515 14.0416 6.99023 17.1511 6.99023H37.7325C40.8419 6.99023 43.4069 9.55515 43.4069 12.6646V14.7228V15.2228H43.9069H45.965C50.5899 15.2228 54.3836 19.0165 54.3836 23.6413V42.8506C54.3836 45.9601 51.8187 48.525 48.7092 48.525H43.9069H43.4069V49.025V52.4552C43.4069 55.5647 40.8419 58.1296 37.7325 58.1296H17.1511C14.0416 58.1296 11.4767 55.5647 11.4767 52.4552V49.025V48.525H10.9767H6.1744C3.06491 48.525 0.5 45.9601 0.5 42.8506V23.6413C0.5 19.0165 4.2937 15.2228 8.91858 15.2228H10.9767ZM39.7906 15.2228H40.2906V14.7228V12.6646C40.2906 11.227 39.1701 10.1065 37.7325 10.1065H17.1511C15.7135 10.1065 14.593 11.227 14.593 12.6646V14.7228V15.2228H15.093H39.7906ZM43.4069 44.9087V45.4087H43.9069H48.7092C50.1468 45.4087 51.2673 44.2882 51.2673 42.8506V23.6413C51.2673 20.6895 48.9168 18.339 45.965 18.339H8.91858C5.96678 18.339 3.61627 20.6895 3.61627 23.6413V42.8506C3.61627 44.2882 4.73679 45.4087 6.1744 45.4087H10.9767H11.4767V44.9087V40.1064C11.4767 36.9969 14.0416 34.432 17.1511 34.432H37.7325C40.8419 34.432 43.4069 36.9969 43.4069 40.1064V44.9087ZM37.7325 37.5483H17.1511C15.7135 37.5483 14.593 38.6688 14.593 40.1064V52.4552C14.593 53.8928 15.7135 55.0134 17.1511 55.0134H37.7325C39.1701 55.0134 40.2906 53.8928 40.2906 52.4552V40.1064C40.2906 38.6688 39.1701 37.5483 37.7325 37.5483Z" fill="black" stroke="black"/>
<rect x="41.1626" y="1" width="17.8372" height="27.4418" fill="white"/>
<path d="M41.6734 0.5H41.7201H41.7202H41.7203H41.7205H41.7206H41.7207H41.7209H41.721H41.7211H41.7212H41.7214H41.7215H41.7216H41.7217H41.7219H41.722H41.7221H41.7222H41.7224H41.7225H41.7226H41.7227H41.7229H41.723H41.7231H41.7232H41.7234H41.7235H41.7236H41.7237H41.7239H41.724H41.7241H41.7242H41.7244H41.7245H41.7246H41.7247H41.7249H41.725H41.7251H41.7252H41.7254H41.7255H41.7256H41.7258H41.7259H41.726H41.7261H41.7263H41.7264H41.7265H41.7266H41.7268H41.7269H41.727H41.7271H41.7273H41.7274H41.7275H41.7276H41.7278H41.7279H41.728H41.7281H41.7283H41.7284H41.7285H41.7286H41.7288H41.7289H41.729H41.7291H41.7293H41.7294H41.7295H41.7296H41.7298H41.7299H41.73H41.7301H41.7303H41.7304H41.7305H41.7307H41.7308H41.7309H41.731H41.7312H41.7313H41.7314H41.7315H41.7317H41.7318H41.7319H41.732H41.7322H41.7323H41.7324H41.7325H41.7327H41.7328H41.7329H41.733H41.7332H41.7333H41.7334H41.7335H41.7337H41.7338H41.7339H41.734H41.7342H41.7343H41.7344H41.7345H41.7347H41.7348H41.7349H41.735H41.7352H41.7353H41.7354H41.7355H41.7357H41.7358H41.7359H41.7361H41.7362H41.7363H41.7364H41.7366H41.7367H41.7368H41.7369H41.7371H41.7372H41.7373H41.7374H41.7376H41.7377H41.7378H41.7379H41.7381H41.7382H41.7383H41.7384H41.7386H41.7387H41.7388H41.7389H41.7391H41.7392H41.7393H41.7394H41.7396H41.7397H41.7398H41.7399H41.7401H41.7402H41.7403H41.7404H41.7406H41.7407H41.7408H41.741H41.7411H41.7412H41.7413H41.7415H41.7416H41.7417H41.7418H41.742H41.7421H41.7422H41.7423H41.7425H41.7426H41.7427H41.7428H41.743H41.7431H41.7432H41.7433H41.7435H41.7436H41.7437H41.7438H41.744H41.7441H41.7442H41.7443H41.7445H41.7446H41.7447H41.7448H41.745H41.7451H41.7452H41.7453H41.7455H41.7456H41.7457H41.7458H41.746H41.7461H41.7462H41.7464H41.7465H41.7466H41.7467H41.7469H41.747H41.7471H41.7472H41.7474H41.7475H41.7476H41.7477H41.7479H41.748H41.7481H41.7482H41.7484H41.7485H41.7486H41.7487H41.7489H41.749H41.7491H41.7492H41.7494H41.7495H41.7496H41.7497H41.7499H41.75H41.7501H41.7502H41.7504H41.7505H41.7506H41.7507H41.7509H41.751H41.7511H41.7513H41.7514H41.7515H41.7516H41.7518H41.7519H41.752H41.7521H41.7523H41.7524H41.7525H41.7526H41.7528H41.7529H41.753H41.7531H41.7533H41.7534H41.7535H41.7536H41.7538H41.7539H41.754H41.7541H41.7543H41.7544H41.7545H41.7546H41.7548H41.7549H41.755H41.7551H41.7553H41.7554H41.7555H41.7556H41.7558H41.7559H41.756H41.7562H41.7563H41.7564H41.7565H41.7567H41.7568H41.7569H41.757H41.7572H41.7573H41.7574H41.7575H41.7577H41.7578H41.7579H41.758H41.7582H41.7583H41.7584H41.7585H41.7587H41.7588H41.7589H41.759H41.7592H41.7593H41.7594H41.7595H41.7597H41.7598H41.7599H41.76H41.7602H41.7603H41.7604H41.7605H41.7607H41.7608H41.7609H41.761H41.7612H41.7613H41.7614H41.7616H41.7617H41.7618H41.7619H41.7621H41.7622H41.7623H41.7624H41.7626H41.7627H41.7628H41.7629H41.7631H41.7632H41.7633H41.7634H41.7636H41.7637H41.7638H41.7639H41.7641H41.7642H41.7643H41.7644H41.7646H41.7647H41.7648H41.7649H41.7651H41.7652H41.7653H41.7654H41.7656H41.7657H41.7658H41.7659H41.7661H41.7662H41.7663H41.7665H41.7666H41.7667H41.7668H41.767H41.7671H41.7672H41.7673H41.7675H41.7676H41.7677H41.7678H41.768H41.7681H41.7682H41.7683H41.7685H41.7686H41.7687H41.7688H41.769H41.7691H41.7692H41.7693H41.7695H41.7696H41.7697H41.7698H41.77H41.7701H41.7702H41.7703H41.7705H41.7706H41.7707H41.7708H41.771H41.7711H41.7712H41.7714H41.7715H41.7716H41.7717H41.7719H41.772H41.7721H41.7722H41.7724H41.7725H41.7726H41.7727H41.7729H41.773H41.7731H41.7732H41.7734H41.7735H41.7736H41.7737H41.7739H41.774H41.7741H41.7742H41.7744H41.7745H41.7746H41.7747H41.7749H41.775H41.7751H41.7752H41.7754H41.7755H41.7756H41.7757H41.7759H41.776H41.7761H41.7762H41.7764H41.7765H41.7766H41.7768H41.7769H41.777H41.7771H41.7773H41.7774H41.7775H41.7776H41.7778H41.7779H41.778H41.7781H41.7783H41.7784H41.7785H41.7786H41.7788H41.7789H41.779H41.7791H41.7793H41.7794H41.7795H41.7796H41.7798H41.7799H41.78H41.7801H41.7803H41.7804H41.7805H41.7806H41.7808H41.7809H41.781H41.7811H41.7813H41.7814H41.7815H41.7817H41.7818H41.7819H41.782H41.7822H41.7823H41.7824H41.7825H41.7827H41.7828H41.7829H41.783H41.7832H41.7833H41.7834H41.7835H41.7837H41.7838H41.7839H41.784H41.7842H41.7843H41.7844H41.7845H41.7847H41.7848H41.7849H41.785H41.7852H41.7853H41.7854H41.7855H41.7857H41.7858H41.7859H41.786H41.7862H41.7863H41.7864H41.7866H41.7867H41.7868H41.7869H41.7871H41.7872H41.7873H41.7874H41.7876H41.7877H41.7878H41.7879H41.7881H41.7882H41.7883H41.7884H41.7886H41.7887H41.7888H41.7889H41.7891H41.7892H41.7893H41.7894H41.7896H41.7897H41.7898H41.7899H41.7901H41.7902H41.7903H41.7904H41.7906H41.7907H41.7908H41.7909H41.7911H41.7912H41.7913H41.7914H41.7916H41.7917H41.7918H41.792H41.7921H41.7922H41.7923H41.7925H41.7926H41.7927H41.7928H41.793H41.7931H41.7932H41.7933H41.7935H41.7936H41.7937H41.7938H41.794H41.7941H41.7942H41.7943H41.7945H41.7946H41.7947H41.7948H41.795H41.7951H41.7952H41.7953H41.7955H41.7956H41.7957H41.7958H41.796H41.7961H41.7962H41.7963H41.7965H41.7966H41.7967H41.7969H41.797H41.7971H41.7972H41.7974H41.7975H41.7976H41.7977H41.7979H41.798H41.7981H41.7982H41.7984H41.7985H41.7986H41.7987H41.7989H41.799H41.7991H41.7992H41.7994H41.7995H41.7996H41.7997H41.7999H41.8H41.8001H41.8002H41.8004H41.8005H41.8006H41.8007H41.8009H41.801H41.8011H41.8012H41.8014H41.8015H41.8016H41.8018H41.8019H41.802H41.8021H41.8023H41.8024H41.8025H41.8026H41.8028H41.8029H41.803H41.8031H41.8033H41.8034H41.8035H41.8036H41.8038H41.8039H41.804H41.8041H41.8043H41.8044H41.8045H41.8046H41.8048H41.8049H41.805H41.8051H41.8053H41.8054H41.8055H41.8056H41.8058H41.8059H41.806H41.8061H41.8063H41.8064H41.8065H41.8066H41.8068H41.8069H41.807H41.8072H41.8073H41.8074H41.8075H41.8077H41.8078H41.8079H41.808H41.8082H41.8083H41.8084H41.8085H41.8087H41.8088H41.8089H41.809H41.8092H41.8093H41.8094H41.8095H41.8097H41.8098H41.8099H41.81H41.8102H41.8103H41.8104H41.8105H41.8107H41.8108H41.8109H41.811H41.8112H41.8113H41.8114H41.8115H41.8117H41.8118H41.8119H41.8121H41.8122H41.8123H41.8124H41.8126H41.8127H41.8128H41.8129H41.8131H41.8132H41.8133H41.8134H41.8136H41.8137H41.8138H41.8139H41.8141H41.8142H41.8143H41.8144H41.8146H41.8147H41.8148H41.8149H41.8151H41.8152H41.8153H41.8154H41.8156H41.8157H41.8158H41.8159H41.8161H41.8162H41.8163H41.8164H41.8166H41.8167H41.8168H41.817H41.8171H41.8172H41.8173H41.8175H41.8176H41.8177H41.8178H41.818H41.8181H41.8182H41.8183H41.8185H41.8186H41.8187H41.8188H41.819H41.8191H41.8192H41.8193H41.8195H41.8196H41.8197H41.8198H41.82H41.8201H41.8202H41.8203H41.8205H41.8206H41.8207H41.8208H41.821H41.8211H41.8212H41.8213H41.8215H41.8216H41.8217H41.8218H41.822H41.8221H41.8222H41.8224H41.8225H41.8226H41.8227H41.8229H41.823H41.8231H41.8232H41.8234H41.8235H41.8236H41.8237H41.8239H41.824H41.8241H41.8242H41.8244H41.8245H41.8246H41.8247H41.8249H41.825H41.8251H41.8252H41.8254H41.8255H41.8256H41.8257H41.8259H41.826H41.8261H41.8262H41.8264H41.8265H41.8266H41.8267H41.8269H41.827H41.8271H41.8273H41.8274H41.8275H41.8276H41.8278H41.8279H41.828H41.8281H41.8283H41.8284H41.8285H41.8286H41.8288H41.8289H41.829H41.8291H41.8293H41.8294H41.8295H41.8296H41.8298H41.8299H41.83H41.8301H41.8303H41.8304H41.8305H41.8306H41.8308H41.8309H41.831H41.8311H41.8313H41.8314H41.8315H41.8316H41.8318H41.8319H41.832H41.8321H41.8323H41.8324H41.8325H41.8327H41.8328H41.8329H41.833H41.8332H41.8333H41.8334H41.8335H41.8337H41.8338H41.8339H41.834H41.8342H41.8343H41.8344H41.8345H41.8347H41.8348H41.8349H41.835H41.8352H41.8353H41.8354H41.8355H41.8357H41.8358H41.8359H41.836H41.8362H41.8363H41.8364H41.8365H41.8367H41.8368H41.8369H41.837H41.8372H41.8373H41.8374H41.8376H41.8377H41.8378H41.8379H41.8381H41.8382H41.8383H41.8384H41.8386H41.8387H41.8388H41.8389H41.8391H41.8392H41.8393H41.8394H41.8396H41.8397H41.8398H41.8399H41.8401H41.8402H41.8403H41.8404H41.8406H41.8407H41.8408H41.8409H41.8411H41.8412H41.8413H41.8414H41.8416H41.8417H41.8418H41.8419H41.8421H41.8422H41.8423H41.8425H41.8426H41.8427H41.8428H41.843H41.8431H41.8432H41.8433H41.8435H41.8436H41.8437H41.8438H41.844H41.8441H41.8442H41.8443H41.8445H41.8446H41.8447H41.8448H41.845H41.8451H41.8452H41.8453H41.8455H41.8456H41.8457H41.8458H41.846H41.8461H41.8462H41.8463H41.8465H41.8466H41.8467H41.8468H41.847H41.8471H41.8472H41.8473H41.8475H41.8476H41.8477H41.8479H41.848H41.8481H41.8482H41.8484H41.8485H41.8486H41.8487H58.3138C58.9678 0.5 59.4998 1.03204 59.4998 1.68604V31.8698V31.872H58.9998C59.0025 32.1186 58.8712 32.3463 58.6595 32.4696L41.6734 0.5ZM41.6734 0.5L41.6275 0.508655C41.0615 0.615354 40.6556 1.11434 40.6627 1.68951M41.6734 0.5L41.1627 1.68604M40.6627 31.8697C40.6592 32.2963 40.8862 32.688 41.2494 32.9005C41.6191 33.1194 42.0738 33.1169 42.441 32.9058L42.444 32.904L50.0813 28.442L57.7185 32.904L57.7215 32.9057C58.0888 33.1169 58.5435 33.1194 58.9131 32.9005L41.1627 31.872M40.6627 31.8697C40.6627 31.8686 40.6627 31.8676 40.6627 31.8666L41.1627 31.872M40.6627 31.8697V31.872H41.1627M40.6627 31.8697V1.68951M41.1627 31.872V1.68604M40.6627 1.68951C40.6627 1.69102 40.6627 1.69253 40.6628 1.69404L41.1627 1.68604M40.6627 1.68951V1.68604H41.1627M49.4863 26.0375L43.0348 29.8009V2.87209H57.1278V29.8009L50.6762 26.0375L50.6759 26.0373C50.3087 25.8235 49.8539 25.8235 49.4866 26.0373L49.4863 26.0375Z" fill="black" stroke="black"/>
</svg>
