<svg width="81" height="82" viewBox="0 0 81 82" fill="none" xmlns="http://www.w3.org/2000/svg">
<rect x="1.5" y="22.5" width="57" height="57" rx="18.5" stroke="black" stroke-width="3"/>
<rect y="38.8379" width="60" height="3.24324" rx="1.62162" fill="black"/>
<rect x="31.9214" y="38.8716" width="42.1455" height="3.67877" rx="1.83939" transform="rotate(90.0108 31.9214 38.8716)" fill="black"/>
<path d="M70.5 0C68.4233 0 66.3932 0.615814 64.6665 1.76957C62.9398 2.92332 61.594 4.5632 60.7993 6.48182C60.0045 8.40045 59.7966 10.5116 60.2018 12.5484C60.6069 14.5852 61.6069 16.4562 63.0754 17.9246C64.5438 19.3931 66.4148 20.3931 68.4516 20.7982C70.4884 21.2034 72.5996 20.9954 74.5182 20.2007C76.4368 19.406 78.0767 18.0602 79.2304 16.3335C80.3842 14.6068 81 12.5767 81 10.5C80.997 7.71615 79.8898 5.04718 77.9213 3.0787C75.9528 1.11022 73.2839 0.00301095 70.5 0ZM70.5 19.25C68.7694 19.25 67.0777 18.7368 65.6388 17.7754C64.1998 16.8139 63.0783 15.4473 62.4161 13.8485C61.7538 12.2496 61.5805 10.4903 61.9181 8.79296C62.2558 7.09562 63.0891 5.53652 64.3128 4.31281C65.5365 3.08911 67.0956 2.25575 68.793 1.91813C70.4903 1.58051 72.2496 1.75379 73.8485 2.41605C75.4473 3.07832 76.8139 4.19983 77.7754 5.63876C78.7368 7.07769 79.25 8.76941 79.25 10.5C79.2475 12.8199 78.3248 15.044 76.6844 16.6844C75.044 18.3248 72.8199 19.2474 70.5 19.25ZM74.875 10.5C74.875 10.7321 74.7828 10.9546 74.6187 11.1187C74.4546 11.2828 74.2321 11.375 74 11.375H71.375V14C71.375 14.2321 71.2828 14.4546 71.1187 14.6187C70.9546 14.7828 70.7321 14.875 70.5 14.875C70.2679 14.875 70.0454 14.7828 69.8813 14.6187C69.7172 14.4546 69.625 14.2321 69.625 14V11.375H67C66.7679 11.375 66.5454 11.2828 66.3813 11.1187C66.2172 10.9546 66.125 10.7321 66.125 10.5C66.125 10.2679 66.2172 10.0454 66.3813 9.88128C66.5454 9.71719 66.7679 9.625 67 9.625H69.625V7C69.625 6.76793 69.7172 6.54537 69.8813 6.38128C70.0454 6.21719 70.2679 6.125 70.5 6.125C70.7321 6.125 70.9546 6.21719 71.1187 6.38128C71.2828 6.54537 71.375 6.76793 71.375 7V9.625H74C74.2321 9.625 74.4546 9.71719 74.6187 9.88128C74.7828 10.0454 74.875 10.2679 74.875 10.5Z" fill="#242424"/>
</svg>
