<svg width="20" height="20" viewBox="0 0 20 20" fill="none" xmlns="http://www.w3.org/2000/svg">
<path d="M3.83037 18.1692C-0.0856323 15.2292 -1.22463 9.13915 1.47037 4.80515C4.13037 0.525152 9.24737 -1.04885 14.0474 0.705152C18.5804 2.36015 20.3754 6.72115 18.0954 9.86415C17.2414 11.0412 16.1704 11.4982 14.4314 11.7182L13.4444 11.8242L13.0464 11.8692C12.1124 11.9922 11.6944 12.1802 11.4744 12.5742C11.1764 13.1092 11.1694 13.4662 11.4414 14.1692L11.5874 14.5202L11.6654 14.6992C12.1054 15.7132 12.2604 16.3872 12.0814 17.2402L12.0344 17.4402L11.9874 17.6042C11.1234 20.3932 7.34037 20.8062 3.83037 18.1692V18.1692ZM10.5464 17.1852L10.5834 17.0622L10.6134 16.9282C10.7004 16.4892 10.6284 16.1142 10.3714 15.4912L10.1144 14.8892C9.62137 13.6872 9.57437 12.9042 10.1644 11.8432C10.6764 10.9262 11.4624 10.5682 12.8244 10.3862L13.2834 10.3332L13.8154 10.2782L14.2374 10.2312C15.5984 10.0591 16.3274 9.74615 16.8814 8.98315C18.5314 6.70815 17.1904 3.44915 13.5324 2.11315C9.38037 0.597151 5.01837 1.93915 2.74337 5.59715C0.459368 9.27215 1.43737 14.4962 4.73037 16.9702C7.49337 19.0452 10.0104 18.7902 10.5464 17.1852V17.1852ZM8.55237 5.96015C8.39239 6.00739 8.22457 6.02214 8.0588 6.00352C7.89303 5.9849 7.73266 5.93328 7.58715 5.85172C7.44164 5.77016 7.31392 5.66029 7.21153 5.5286C7.10914 5.39691 7.03414 5.24606 6.99096 5.08493C6.94777 4.92381 6.93727 4.75567 6.96008 4.59043C6.98289 4.42518 7.03854 4.26617 7.12376 4.12277C7.20897 3.97936 7.32203 3.85447 7.45627 3.75544C7.5905 3.65641 7.7432 3.58525 7.90537 3.54615C8.22233 3.46973 8.55661 3.52018 8.83691 3.68675C9.1172 3.85331 9.32132 4.1228 9.40573 4.43773C9.49014 4.75266 9.44815 5.08811 9.28873 5.37252C9.12931 5.65694 8.86507 5.86781 8.55237 5.96015V5.96015ZM12.0404 5.46615C11.7201 5.55195 11.3789 5.50701 11.0918 5.34123C10.8047 5.17545 10.5952 4.9024 10.5094 4.58215C10.4236 4.2619 10.4685 3.92069 10.6343 3.63357C10.8001 3.34645 11.0731 3.13695 11.3934 3.05115C11.5519 3.00867 11.7173 2.99784 11.8801 3.01927C12.0428 3.0407 12.1998 3.09398 12.3419 3.17607C12.4841 3.25816 12.6087 3.36744 12.7087 3.49769C12.8086 3.62793 12.8819 3.77658 12.9244 3.93515C12.9668 4.09372 12.9777 4.25911 12.9563 4.42187C12.9348 4.58462 12.8815 4.74157 12.7994 4.88373C12.7174 5.0259 12.6081 5.15051 12.4778 5.25044C12.3476 5.35037 12.1989 5.42367 12.0404 5.46615V5.46615ZM5.54937 7.93815C5.22912 8.02395 4.8879 7.97901 4.60078 7.81323C4.31367 7.64745 4.10416 7.3744 4.01837 7.05415C3.93257 6.7339 3.9775 6.39269 4.14329 6.10557C4.30907 5.81845 4.58212 5.60895 4.90237 5.52315C5.06094 5.48067 5.22632 5.46984 5.38908 5.49127C5.55184 5.5127 5.70878 5.56598 5.85095 5.64807C5.99312 5.73016 6.11772 5.83944 6.21765 5.96969C6.31758 6.09993 6.39088 6.24858 6.43337 6.40715C6.51917 6.7274 6.47423 7.06862 6.30845 7.35573C6.22636 7.4979 6.11708 7.62251 5.98683 7.72244C5.85659 7.82237 5.70794 7.89567 5.54937 7.93815V7.93815ZM14.5474 7.96615C14.3874 8.0134 14.2196 8.02814 14.0538 8.00952C13.888 7.9909 13.7277 7.93928 13.5821 7.85772C13.4366 7.77616 13.3089 7.66629 13.2065 7.5346C13.1041 7.40291 13.0291 7.25206 12.986 7.09094C12.9428 6.92981 12.9323 6.76167 12.9551 6.59643C12.9779 6.43118 13.0335 6.27217 13.1188 6.12877C13.204 5.98536 13.317 5.86047 13.4513 5.76144C13.5855 5.66241 13.7382 5.59125 13.9004 5.55215C14.2173 5.47573 14.5516 5.52618 14.8319 5.69275C15.1122 5.85931 15.3163 6.1288 15.4007 6.44373C15.4851 6.75866 15.4432 7.09411 15.2837 7.37852C15.1243 7.66294 14.8601 7.87381 14.5474 7.96615V7.96615ZM4.57737 11.4632C4.41829 11.5072 4.25207 11.5192 4.0883 11.4987C3.92454 11.4781 3.76646 11.4253 3.6232 11.3434C3.47995 11.2614 3.35434 11.1518 3.25364 11.0211C3.15293 10.8903 3.07913 10.7409 3.03648 10.5814C2.99382 10.422 2.98317 10.2557 3.00514 10.0921C3.0271 9.9285 3.08124 9.77088 3.16444 9.62833C3.24764 9.48578 3.35825 9.36112 3.48988 9.26154C3.62151 9.16196 3.77156 9.08943 3.93137 9.04815C4.25055 8.96569 4.58939 9.01267 4.87411 9.17884C5.15883 9.34502 5.36637 9.61694 5.45156 9.93541C5.53675 10.2539 5.49268 10.5931 5.32896 10.8792C5.16523 11.1654 4.89509 11.3752 4.57737 11.4632V11.4632Z" fill="white"/>
</svg>
