<svg width="68" height="71" viewBox="0 0 68 71" fill="none" xmlns="http://www.w3.org/2000/svg">
<rect x="1.5" y="1.5" width="57" height="57" rx="18.5" stroke="#242424" stroke-width="3"/>
<rect y="17.8379" width="60" height="3.24324" rx="1.62162" fill="#242424"/>
<rect x="31.9214" y="17.8711" width="42.1455" height="3.67877" rx="1.83939" transform="rotate(90.0108 31.9214 17.8711)" fill="#242424"/>
<rect x="42" y="42" width="20" height="26" fill="white"/>
<path d="M43 43V45H45V49C45 51.543 46.3672 53.7734 48.4062 55C46.3672 56.2266 45 58.457 45 61V65H43V67H61V65H59V61C59 58.457 57.6328 56.2266 55.5938 55C57.6328 53.7734 59 51.543 59 49V45H61V43H43ZM47 45H57V49C57 51.7734 54.7734 54 52 54C49.2266 54 47 51.7734 47 49V45ZM48.1562 50C48.6016 51.7227 50.1367 53 52 53C53.8633 53 55.3984 51.7227 55.8438 50H48.1562ZM52 56C54.7734 56 57 58.2266 57 61V65H56C56 62.7891 54.2109 61 52 61C49.7891 61 48 62.7891 48 65H47V61C47 58.2266 49.2266 56 52 56Z" fill="#242424"/>
</svg>
