<svg width="100" height="100" viewBox="0 0 100 100" fill="none" xmlns="http://www.w3.org/2000/svg">
<path d="M84.8029 83H15.1969C12.7419 83 11.2059 80.337 12.4309 78.204L47.2419 17.599C48.4659 15.467 51.5349 15.467 52.7599 17.599L87.5699 78.204C88.7949 80.337 87.2589 83 84.8029 83Z" fill="#8E9DB5"/>
<path d="M82.5501 78.4991L50.0011 21.8301L50.0001 21.8321L27.2151 61.4991L26.7821 61.2501L25.0591 64.2501L25.4921 64.4991L23.7691 67.4991L23.3351 67.2501L22.1871 69.2501L22.6201 69.4991L22.0461 70.4991L21.6121 70.2501L17.0161 78.2501L17.4511 78.4991H82.5501Z" fill="#F9E65C"/>
<path d="M69.344 55.5001L63.5 55.4941C63.5 54.3191 63.196 53.1711 62.61 52.1521C61.172 49.6501 58.491 44.9881 58.435 44.8991C58.358 44.7771 58.269 44.6641 58.187 44.6271C57.313 44.2331 56.216 44.8021 55.819 45.6851C55.657 46.0451 55.501 46.4471 55.501 47.1681C55.501 47.5821 55.613 48.4421 55.908 49.3911C57.5 54.5001 57.5 54.5001 57.5 54.5001H37.607C36.611 54.5001 35.687 55.1811 35.527 56.1641C35.323 57.4171 36.285 58.5001 37.5 58.5001C37.11 58.5001 36.756 58.5001 36.5 58.5001C35.396 58.5001 34.5 59.3951 34.5 60.5001C34.5 61.6041 35.396 62.5001 36.5 62.5001C36.648 62.5001 37.026 62.5001 37.5 62.5001C36.396 62.5001 35.5 63.3951 35.5 64.5001C35.5 65.6041 36.396 66.5001 37.5 66.5001C37.835 66.5001 39.325 66.5001 40.5 66.5001C39.285 66.5001 38.323 67.5831 38.527 68.8361C38.687 69.8191 39.61 70.5001 40.607 70.5001H60.5C62.157 70.5001 63.5 69.1571 63.5 67.5001H76.232L69.344 55.5001Z" fill="#5C769B"/>
<path d="M84.8029 84H15.1969C13.6849 84 12.3299 83.218 11.5709 81.907C10.8099 80.593 10.8069 79.022 11.5629 77.706L46.3749 17.101C47.1299 15.785 48.4849 15 49.9999 15C49.9999 15 49.9999 15 50.0009 15C51.5159 15 52.8709 15.785 53.6269 17.101L88.4379 77.706C89.1939 79.022 89.1909 80.593 88.4299 81.907C87.6709 83.218 86.3149 84 84.8029 84ZM49.9999 17C49.2099 17 48.5039 17.41 48.1089 18.097L13.2979 78.702C12.9019 79.392 12.9029 80.216 13.3019 80.905C13.6989 81.591 14.4069 82 15.1969 82H84.8019C85.5919 82 86.3009 81.591 86.6979 80.905C87.0959 80.216 87.0979 79.392 86.7019 78.702L51.8929 18.097C51.4979 17.41 50.7909 17 49.9999 17Z" fill="#1F212B"/>
<path d="M60.5001 71H40.6071C39.3341 71 38.2271 70.104 38.0341 68.916C37.9141 68.183 38.1191 67.441 38.5951 66.881C39.0711 66.321 39.7661 66 40.5001 66C40.7761 66 41.0001 66.224 41.0001 66.5C41.0001 66.776 40.7761 67 40.5001 67C40.0601 67 39.6431 67.192 39.3561 67.529C39.0661 67.87 38.9471 68.305 39.0201 68.756C39.1371 69.465 39.8181 70 40.6071 70H60.5001C61.8791 70 63.0001 68.879 63.0001 67.5C63.0001 67.224 63.2241 67 63.5001 67H76.2321C76.5081 67 76.7321 67.224 76.7321 67.5C76.7321 67.776 76.5081 68 76.2321 68H63.9651C63.7211 69.694 62.2601 71 60.5001 71Z" fill="#1F212B"/>
<path d="M37.5001 58.9998C36.7661 58.9998 36.0711 58.6788 35.5951 58.1188C35.1191 57.5578 34.9141 56.8168 35.0341 56.0838C35.2271 54.8958 36.3341 53.9998 37.6071 53.9998H56.8201L55.4291 49.5388C55.1331 48.5868 55.0001 47.6618 55.0001 47.1678C55.0001 46.3518 55.1881 45.8678 55.3621 45.4788C55.6051 44.9408 56.0601 44.4838 56.6111 44.2248C57.2091 43.9428 57.8421 43.9228 58.3911 44.1708C58.5591 44.2468 58.7071 44.3938 58.8581 44.6338C58.9051 44.7088 60.2041 46.9658 62.7451 51.3818L63.0441 51.9028C63.5871 52.8478 63.9071 53.9138 63.9821 54.9998H69.3461C69.6211 54.9998 69.8451 55.2248 69.8451 55.5008C69.8451 55.7758 69.6211 55.9998 69.3451 55.9998C69.3451 55.9998 69.3451 55.9998 69.3441 55.9998L63.4991 55.9938C63.2241 55.9938 63.0001 55.7698 63.0001 55.4938C63.0001 54.4088 62.7151 53.3388 62.1771 52.3998L61.8781 51.8798C60.4651 49.4238 58.1021 45.3138 58.0091 45.1598C57.9561 45.0768 57.9271 45.0488 57.9261 45.0488C57.6081 44.9128 57.2281 45.0378 57.0361 45.1288C56.6981 45.2868 56.4201 45.5648 56.2741 45.8888C56.1241 46.2228 56.0001 46.5478 56.0001 47.1678C56.0001 47.5718 56.1201 48.3948 56.3851 49.2418L57.9781 54.3508C58.0251 54.5018 57.9981 54.6668 57.9031 54.7948C57.8091 54.9248 57.6591 54.9998 57.5001 54.9998H37.6071C36.8181 54.9998 36.1361 55.5348 36.0201 56.2438C35.9471 56.6938 36.0661 57.1298 36.3561 57.4708C36.6431 57.8078 37.0601 57.9998 37.5001 57.9998C37.7761 57.9998 38.0001 58.2238 38.0001 58.4998C38.0001 58.7758 37.7761 58.9998 37.5001 58.9998Z" fill="#1F212B"/>
<path d="M49.5 67H37.5C36.121 67 35 65.879 35 64.5C35 63.121 36.121 62 37.5 62H48.5C48.776 62 49 62.224 49 62.5C49 62.776 48.776 63 48.5 63H37.5C36.673 63 36 63.673 36 64.5C36 65.327 36.673 66 37.5 66H49.5C49.776 66 50 66.224 50 66.5C50 66.776 49.776 67 49.5 67Z" fill="#1F212B"/>
<path d="M38.5 63H36.5C35.121 63 34 61.879 34 60.5C34 59.121 35.121 58 36.5 58H48.5C48.776 58 49 58.224 49 58.5C49 58.776 48.776 59 48.5 59H36.5C35.673 59 35 59.673 35 60.5C35 61.327 35.673 62 36.5 62H38.5C38.776 62 39 62.224 39 62.5C39 62.776 38.776 63 38.5 63Z" fill="#1F212B"/>
<path d="M50.5 51.0004H40.5C39.121 51.0004 38 49.8794 38 48.5004V41.8964C38 41.6204 38.224 41.3964 38.5 41.3964C38.776 41.3964 39 41.6204 39 41.8964V48.5004C39 49.3274 39.673 50.0004 40.5 50.0004H50.5C51.327 50.0004 52 49.3274 52 48.5004V26.1934C52 25.9174 52.224 25.6934 52.5 25.6934C52.776 25.6934 53 25.9174 53 26.1934V48.5004C53 49.8794 51.879 51.0004 50.5 51.0004Z" fill="#1F212B"/>
<path d="M45.4998 46.9993C45.3718 46.9993 45.2438 46.9503 45.1458 46.8533L42.1458 43.8533C41.9508 43.6583 41.9508 43.3413 42.1458 43.1463C42.3408 42.9512 42.6578 42.9512 42.8528 43.1463L45.4988 45.7923L48.1448 43.1463C48.3398 42.9512 48.6568 42.9512 48.8518 43.1463C49.0468 43.3413 49.0468 43.6583 48.8518 43.8533L45.8518 46.8533C45.7558 46.9503 45.6278 46.9993 45.4998 46.9993Z" fill="#1F212B"/>
<path d="M45.5 47C45.224 47 45 46.776 45 46.5V37.5C45 37.224 45.224 37 45.5 37C45.776 37 46 37.224 46 37.5V46.5C46 46.776 45.776 47 45.5 47Z" fill="#1F212B"/>
<path d="M52.5 79C52.224 79 52 78.776 52 78.5V76.5C52 75.673 51.327 75 50.5 75H40.5C39.673 75 39 75.673 39 76.5V78.5C39 78.776 38.776 79 38.5 79C38.224 79 38 78.776 38 78.5V76.5C38 75.121 39.121 74 40.5 74H50.5C51.879 74 53 75.121 53 76.5V78.5C53 78.776 52.776 79 52.5 79Z" fill="#1F212B"/>
<path d="M82.5512 78.9999H17.4512C17.1752 78.9999 16.9512 78.7759 16.9512 78.4999C16.9512 78.2239 17.1752 77.9999 17.4512 77.9999H81.6862L50.0012 22.8339L27.6492 61.7489C27.5102 61.9889 27.2022 62.0689 26.9662 61.9339C26.7272 61.7959 26.6442 61.4909 26.7812 61.2509L49.5652 21.5839C49.7432 21.2719 50.2552 21.2719 50.4332 21.5819L82.9832 78.2509C83.0722 78.4049 83.0722 78.5959 82.9822 78.7499C82.8952 78.9049 82.7292 78.9999 82.5512 78.9999Z" fill="#1F212B"/>
<path d="M22.046 71C21.961 71 21.875 70.979 21.797 70.934C21.558 70.796 21.475 70.491 21.612 70.251L22.186 69.251C22.324 69.01 22.631 68.9301 22.869 69.0661C23.108 69.2041 23.191 69.509 23.054 69.749L22.48 70.749C22.387 70.91 22.219 71 22.046 71Z" fill="#1F212B"/>
<path d="M23.7701 68.0005C23.6851 68.0005 23.5991 67.9795 23.5211 67.9345C23.2821 67.7965 23.1991 67.4915 23.3361 67.2515L25.0591 64.2515C25.1971 64.0105 25.5031 63.9295 25.7421 64.0665C25.9811 64.2045 26.0641 64.5095 25.9271 64.7495L24.2041 67.7495C24.1101 67.9105 23.9421 68.0005 23.7701 68.0005Z" fill="#1F212B"/>
</svg>
