<svg width="37" height="50" viewBox="0 0 37 50" fill="none" xmlns="http://www.w3.org/2000/svg">
<path d="M18.0029 0C8.24902 0 0.280274 7.39062 0.0341795 16.5625C0.0263675 16.6133 0.0380855 16.668 0.0341795 16.7188C0.0341795 16.7305 0.0341795 16.7383 0.0341795 16.75C0.0185545 16.8125 0.0068355 16.875 0.0029295 16.9375C0.0029295 16.957 0.0029295 16.9766 0.0029295 17C-0.0009765 17.043 -0.0009765 17.082 0.0029295 17.125V41C0.0029295 43.7773 2.31152 46.0273 5.56543 47.5625C8.81934 49.0977 13.1748 50 18.0029 50C22.8311 50 27.1865 49.0977 30.4404 47.5625C33.6943 46.0273 36.0029 43.7773 36.0029 41V17.2188C36.0029 17.1992 36.0029 17.1758 36.0029 17.1562C36.0068 17.1055 36.0068 17.0508 36.0029 17C36.0029 16.9688 36.0029 16.9375 36.0029 16.9062C36.0029 16.8945 36.0029 16.8867 36.0029 16.875C35.999 16.8203 35.9756 16.7734 35.9717 16.7188C35.9678 16.668 35.9795 16.6133 35.9717 16.5625C35.7256 7.39062 27.7568 0 18.0029 0ZM18.0029 2C25.5146 2 31.749 6.84766 33.5029 13.3125C32.624 12.7383 31.5576 12.2383 30.3467 11.8125C27.1201 10.6719 22.792 10 18.0029 10C13.2139 10 8.88574 10.6719 5.65918 11.8125C4.44824 12.2383 3.38184 12.7383 2.50293 13.3125C4.25684 6.84766 10.4912 2 18.0029 2ZM18.0029 12C22.6006 12 26.7646 12.6562 29.6904 13.6875C31.1553 14.2031 32.3115 14.8359 33.0342 15.4375C33.7256 16.0156 33.9834 16.5039 34.0029 16.9375C34.0029 16.957 34.0029 16.9805 34.0029 17C34.0029 17.0312 34.0029 17.0625 34.0029 17.0938C33.9717 17.5195 33.71 18 33.0342 18.5625C32.3115 19.1641 31.1553 19.7969 29.6904 20.3125C26.7646 21.3438 22.6006 22 18.0029 22C13.4053 22 9.24121 21.3438 6.31543 20.3125C4.85059 19.7969 3.69434 19.1641 2.97168 18.5625C2.28027 17.9844 2.02246 17.4961 2.00293 17.0625C2.00293 17.043 2.00293 17.0195 2.00293 17C2.00293 16.9688 2.00293 16.9375 2.00293 16.9062C2.03418 16.4805 2.2959 16 2.97168 15.4375C3.69434 14.8359 4.85059 14.2031 6.31543 13.6875C9.24121 12.6562 13.4053 12 18.0029 12ZM2.00293 20.3125C2.24121 20.4922 2.4834 20.6797 2.75293 20.8438C2.76465 20.8555 2.77246 20.8633 2.78418 20.875C3.45605 21.8438 3.69434 23.6484 4.06543 25.3438C4.24902 26.1914 4.44824 27.0273 4.97168 27.75C5.49512 28.4727 6.43652 29 7.50293 29C9.13965 29 10.1904 28.2852 10.7842 27.7188C11.0811 27.4375 11.2998 27.2266 11.4404 27.125C11.5811 27.0234 11.624 27 11.8154 27C12.0811 27 12.0811 27.0352 12.2217 27.2188C12.3623 27.4023 12.5498 27.8008 12.6592 28.375C12.8779 29.5234 12.8896 31.2617 12.9404 33.0312C12.9912 34.8008 13.0732 36.6211 13.6279 38.1562C13.9053 38.9219 14.2998 39.625 14.9404 40.1562C15.5811 40.6875 16.4561 41 17.4092 41C18.3623 41 19.2217 40.6992 19.8154 40.125C20.4092 39.5508 20.6865 38.7773 20.8467 38C21.167 36.4492 21.0225 34.6797 20.9092 32.9375C20.7959 31.1953 20.7373 29.5156 21.0342 28.4688C21.1826 27.9453 21.3896 27.5938 21.6592 27.375C21.9287 27.1562 22.3076 27 23.0029 27C23.0928 27 23.0342 27 23.0342 27C23.0342 27 23.0928 27.0586 23.1592 27.25C23.2881 27.6328 23.3857 28.3828 23.5342 29.1875C23.6826 29.9922 23.8857 30.9023 24.5029 31.6875C25.1201 32.4727 26.1748 33 27.5029 33C28.9248 33 30.0342 32.1055 30.5342 31.0312C31.0342 29.957 31.1631 28.7461 31.2842 27.4688C31.5264 24.918 31.7607 22.3125 33.0654 21.1562C33.2021 21.0508 33.3115 20.9102 33.3779 20.75C33.6006 20.6094 33.8037 20.4648 34.0029 20.3125V41C34.0029 42.625 32.4951 44.3828 29.5967 45.75C26.6982 47.1172 22.5771 48 18.0029 48C13.4287 48 9.30762 47.1172 6.40918 45.75C3.51074 44.3828 2.00293 42.625 2.00293 41V20.3125ZM5.47168 22.125C5.53418 22.1484 5.59668 22.1641 5.65918 22.1875C8.88574 23.3281 13.2139 24 18.0029 24C22.6592 24 26.8701 23.3633 30.0654 22.2812C29.499 23.9141 29.4287 25.7344 29.2842 27.2812C29.167 28.5195 29.0068 29.5742 28.7217 30.1875C28.4365 30.8008 28.2803 31 27.5029 31C26.6318 31 26.3311 30.7773 26.0654 30.4375C25.7998 30.0977 25.6006 29.5078 25.4717 28.8125C25.3428 28.1172 25.2842 27.3672 25.0342 26.625C24.9092 26.2539 24.7295 25.8594 24.3779 25.5312C24.0264 25.2031 23.5107 25 23.0029 25C21.9717 25 21.0771 25.2656 20.4092 25.8125C19.7412 26.3594 19.3506 27.1172 19.1279 27.9062C18.6826 29.4844 18.7959 31.3047 18.9092 33.0625C19.0225 34.8203 19.1318 36.5508 18.9092 37.625C18.7998 38.1602 18.6084 38.4961 18.4092 38.6875C18.21 38.8789 17.9795 39 17.4092 39C16.8389 39 16.5029 38.8594 16.2217 38.625C15.9404 38.3906 15.6982 38.0156 15.5029 37.4688C15.1084 36.3789 14.9912 34.6992 14.9404 32.9688C14.8896 31.2383 14.9092 29.4766 14.6279 28C14.4873 27.2617 14.2607 26.582 13.8154 26C13.3701 25.418 12.624 25 11.8154 25C11.2061 25 10.6318 25.2266 10.2529 25.5C9.87402 25.7734 9.63574 26.0625 9.40918 26.2812C8.95215 26.7148 8.66309 27 7.50293 27C6.96777 27 6.82324 26.875 6.59668 26.5625C6.37012 26.25 6.16699 25.6602 6.00293 24.9062C5.82324 24.0859 5.72168 23.1133 5.47168 22.125Z" fill="white"/>
</svg>
