<svg width="32" height="31" viewBox="0 0 32 31" fill="none" xmlns="http://www.w3.org/2000/svg">
<path fill-rule="evenodd" clip-rule="evenodd" d="M9.62172 20.6704C9.40838 20.6704 9.19372 20.6045 9.01238 20.4702C8.57505 20.1434 8.49238 19.535 8.82972 19.1114L12.8204 14.0868C12.983 13.8814 13.2244 13.7484 13.4884 13.7161C13.7577 13.6825 14.0217 13.7548 14.2311 13.9163L17.991 16.7773L21.2804 12.6659C21.619 12.241 22.2457 12.1622 22.683 12.4929C23.1204 12.8209 23.2004 13.4293 22.8617 13.8517L18.955 18.7342C18.7924 18.9383 18.5524 19.0713 18.2884 19.1023C18.0217 19.1372 17.7577 19.0623 17.5471 18.9034L13.7897 16.0437L10.415 20.2919C10.2177 20.5399 9.92172 20.6704 9.62172 20.6704" fill="white"/>
<mask id="mask0_507_10660" style="mask-type:alpha" x="23" y="2" width="8" height="8">
<path fill-rule="evenodd" clip-rule="evenodd" d="M23.0603 2.58344H30.1856V9.48726H23.0603V2.58344Z" fill="white"/>
</mask>
<g mask="url(#mask0_507_10660)">
<path fill-rule="evenodd" clip-rule="evenodd" d="M26.623 4.52081C25.7616 4.52081 25.0603 5.19894 25.0603 6.03465C25.0603 6.86906 25.7616 7.54977 26.623 7.54977C27.4843 7.54977 28.1856 6.86906 28.1856 6.03465C28.1856 5.19894 27.4843 4.52081 26.623 4.52081M26.623 9.48727C24.659 9.48727 23.0603 7.93856 23.0603 6.03465C23.0603 4.13073 24.659 2.58331 26.623 2.58331C28.5883 2.58331 30.1856 4.13073 30.1856 6.03465C30.1856 7.93856 28.5883 9.48727 26.623 9.48727" fill="white"/>
</g>
<mask id="mask1_507_10660" style="mask-type:alpha" x="2" y="3" width="28" height="27">
<path fill-rule="evenodd" clip-rule="evenodd" d="M2.66663 3.67102H29.1492V29.3248H2.66663V3.67102Z" fill="white"/>
</mask>
<g mask="url(#mask1_507_10660)">
<path fill-rule="evenodd" clip-rule="evenodd" d="M21.6438 29.3248H10.1718C5.6825 29.3248 2.6665 26.27 2.6665 21.7234V11.2841C2.6665 6.73098 5.6825 3.67102 10.1718 3.67102H19.8625C20.4145 3.67102 20.8625 4.10502 20.8625 4.63977C20.8625 5.17452 20.4145 5.60852 19.8625 5.60852H10.1718C6.82784 5.60852 4.6665 7.83535 4.6665 11.2841V21.7234C4.6665 25.2173 6.77584 27.3873 10.1718 27.3873H21.6438C24.9878 27.3873 27.1492 25.1644 27.1492 21.7234V12.6313C27.1492 12.0966 27.5972 11.6626 28.1492 11.6626C28.7012 11.6626 29.1492 12.0966 29.1492 12.6313V21.7234C29.1492 26.27 26.1332 29.3248 21.6438 29.3248" fill="white"/>
</g>
</svg>
