<svg width="51" height="50" viewBox="0 0 51 50" fill="none" xmlns="http://www.w3.org/2000/svg">
<path d="M25.003 2C12.2747 2 2.00303 12.2717 2.00303 25C2.00116 25.1325 2.02564 25.2641 2.07505 25.387C2.12446 25.51 2.19783 25.6219 2.29087 25.7163C2.38391 25.8107 2.49479 25.8856 2.61704 25.9368C2.7393 25.9879 2.8705 26.0142 3.00303 26.0142C3.13555 26.0142 3.26676 25.9879 3.38902 25.9368C3.51127 25.8856 3.62215 25.8107 3.71519 25.7163C3.80823 25.6219 3.88159 25.51 3.93101 25.387C3.98042 25.2641 4.0049 25.1325 4.00303 25C4.00303 13.3443 13.3473 4 25.003 4C33.5896 4 40.9469 9.0885 44.2237 16.4922L40.3487 15.0625C40.2243 15.0105 40.0906 14.9843 39.9557 14.9853C39.8208 14.9864 39.6875 15.0147 39.5638 15.0686C39.4402 15.1225 39.3287 15.2008 39.2361 15.2989C39.1435 15.397 39.0717 15.5128 39.0251 15.6394C38.9784 15.7659 38.9578 15.9006 38.9646 16.0354C38.9713 16.1701 39.0052 16.302 39.0643 16.4233C39.1234 16.5446 39.2063 16.6527 39.3083 16.741C39.4102 16.8294 39.5289 16.8962 39.6573 16.9375L48.003 20.0176V11C48.0049 10.8662 47.9798 10.7334 47.9294 10.6095C47.879 10.4855 47.8042 10.373 47.7095 10.2784C47.6148 10.1839 47.5021 10.1094 47.3781 10.0592C47.254 10.009 47.1212 9.98424 46.9874 9.98633C46.7225 9.99047 46.4701 10.0995 46.2856 10.2896C46.101 10.4796 45.9994 10.7351 46.003 11V15.5742C42.3871 7.52526 34.3382 2 25.003 2ZM46.9874 23.9863C46.7225 23.9905 46.4701 24.0995 46.2856 24.2896C46.101 24.4796 45.9994 24.7351 46.003 25C46.003 36.6557 36.6587 46 25.003 46C16.422 46 9.05727 40.8322 5.78037 33.4883L9.78623 34.9395C9.91055 34.9887 10.0435 35.0125 10.1772 35.0095C10.3109 35.0065 10.4426 34.9767 10.5646 34.9219C10.6865 34.8671 10.7963 34.7884 10.8873 34.6905C10.9783 34.5925 11.0488 34.4773 11.0945 34.3516C11.1402 34.226 11.1603 34.0924 11.1535 33.9589C11.1467 33.8253 11.1132 33.6945 11.0549 33.5741C10.9967 33.4537 10.9149 33.3463 10.8144 33.2581C10.7139 33.1698 10.5967 33.1027 10.4698 33.0605L2.00303 29.9902V39C2.00116 39.1325 2.02564 39.2641 2.07505 39.387C2.12446 39.51 2.19783 39.6219 2.29087 39.7163C2.38391 39.8107 2.49479 39.8856 2.61704 39.9368C2.7393 39.9879 2.8705 40.0142 3.00303 40.0142C3.13555 40.0142 3.26676 39.9879 3.38902 39.9368C3.51127 39.8856 3.62215 39.8107 3.71519 39.7163C3.80823 39.6219 3.88159 39.51 3.93101 39.387C3.98042 39.2641 4.0049 39.1325 4.00303 39V34.4062C7.61772 42.3975 15.6603 48 25.003 48C37.7313 48 48.003 37.7283 48.003 25C48.0049 24.8662 47.9798 24.7334 47.9294 24.6095C47.879 24.4855 47.8042 24.373 47.7095 24.2784C47.6148 24.1839 47.5021 24.1094 47.3781 24.0592C47.254 24.009 47.1212 23.9842 46.9874 23.9863Z" fill="white"/>
<path d="M25.003 14C20.7336 14 17.2119 17.0233 17.0968 20.8475C17.0882 20.9111 17.083 20.973 17.083 21.04C17.083 21.0503 17.083 21.0589 17.083 21.0675C17.083 21.0727 17.083 21.0761 17.083 21.0812C17.083 21.0898 17.083 21.1002 17.083 21.1087C17.083 21.1173 17.083 21.1277 17.083 21.1362V32.04C17.083 33.2655 18.0988 34.2537 19.5305 34.9275C20.9622 35.6012 22.8821 36 25.003 36C27.1239 36 29.0438 35.6012 30.4755 34.9275C31.9072 34.2537 32.923 33.2655 32.923 32.04V21.1362C32.923 21.1277 32.923 21.1173 32.923 21.1087C32.923 21.1036 32.923 21.1002 32.923 21.095C32.923 21.0898 32.923 21.0864 32.923 21.0812C32.923 21.0675 32.923 21.0537 32.923 21.04C32.923 20.973 32.9179 20.9111 32.9093 20.8475C32.7941 17.0233 29.2724 14 25.003 14ZM25.003 14.88C28.2635 14.88 30.9619 16.8016 31.7818 19.39C31.4036 19.1494 30.9482 18.9397 30.4343 18.7575C29.0146 18.2556 27.1102 17.96 25.003 17.96C22.8958 17.96 20.9914 18.2556 19.5718 18.7575C19.0579 18.9397 18.6024 19.1494 18.2243 19.39C19.0441 16.8016 21.7425 14.88 25.003 14.88ZM25.003 18.84C27.026 18.84 28.8582 19.1287 30.1455 19.5825C30.79 19.8094 31.2988 20.0878 31.6168 20.3525C31.9347 20.6172 32.043 20.8441 32.043 21.04C32.043 21.0537 32.043 21.0675 32.043 21.0812C32.0293 21.2686 31.9141 21.48 31.6168 21.7275C31.2988 21.9922 30.79 22.2706 30.1455 22.4975C28.8582 22.9512 27.026 23.24 25.003 23.24C22.98 23.24 21.1479 22.9512 19.8605 22.4975C19.216 22.2706 18.7072 21.9922 18.3893 21.7275C18.085 21.4731 17.9716 21.2583 17.963 21.0675C17.963 21.0589 17.963 21.0486 17.963 21.04C17.963 20.8441 18.0713 20.6172 18.3893 20.3525C18.7072 20.0878 19.216 19.8094 19.8605 19.5825C21.1479 19.1287 22.98 18.84 25.003 18.84ZM17.963 22.4975C18.3875 22.8189 18.9289 23.0956 19.5718 23.3225C20.9914 23.8244 22.8958 24.12 25.003 24.12C27.1102 24.12 29.0146 23.8244 30.4343 23.3225C31.0771 23.0956 31.6185 22.8189 32.043 22.4975V32.04C32.043 32.7584 31.3796 33.5302 30.1043 34.13C28.8289 34.7298 27.0122 35.12 25.003 35.12C22.9938 35.12 21.1771 34.7298 19.9018 34.13C18.6264 33.5302 17.963 32.7584 17.963 32.04V22.4975ZM20.1905 25.9625C20.1579 25.9642 20.1252 25.9677 20.0943 25.9762C19.8777 26.0106 19.7196 26.198 19.723 26.4162V30.5275C19.7213 30.6856 19.8055 30.8334 19.943 30.9125C19.943 30.9125 21.911 32.04 25.003 32.04C28.095 32.04 30.063 30.9125 30.063 30.9125C30.2005 30.8334 30.2847 30.6856 30.283 30.5275V26.4162C30.2882 26.2702 30.2194 26.1309 30.1008 26.0467C29.9822 25.9608 29.8293 25.9402 29.6918 25.99C29.6918 25.99 27.4935 26.76 25.003 26.76C22.5125 26.76 20.3143 25.99 20.3143 25.99C20.2747 25.9745 20.2335 25.9659 20.1905 25.9625ZM20.603 26.98C21.2733 27.1862 22.858 27.64 25.003 27.64C27.148 27.64 28.7327 27.1862 29.403 26.98V30.2387C29.1263 30.3883 27.6293 31.16 25.003 31.16C22.3768 31.16 20.8797 30.3883 20.603 30.2387V26.98Z" fill="white"/>
</svg>
