<svg width="30" height="30" viewBox="0 0 30 30" fill="none" xmlns="http://www.w3.org/2000/svg">
<path d="M28.3694 1.65846C27.6608 0.931165 26.612 0.660212 25.6341 0.945426L2.8306 7.57664C1.79884 7.86328 1.06754 8.68613 0.870547 9.73143C0.669298 10.7953 1.37225 12.1458 2.29063 12.7105L9.4208 17.0928C10.1521 17.542 11.096 17.4294 11.7011 16.819L19.8659 8.60341C20.2769 8.17559 20.9572 8.17559 21.3682 8.60341C21.7792 9.01697 21.7792 9.68722 21.3682 10.115L13.1893 18.3321C12.5827 18.941 12.4693 19.8893 12.9157 20.6252L17.2723 27.8268C17.7826 28.6825 18.6612 29.1673 19.625 29.1673C19.7384 29.1673 19.8659 29.1673 19.9793 29.1531C21.0847 29.0105 21.9634 28.2546 22.2894 27.1851L29.0497 4.41077C29.3473 3.44105 29.078 2.38575 28.3694 1.65846" fill="white"/>
</svg>
