<svg width="22" height="24" viewBox="0 0 22 24" fill="none" xmlns="http://www.w3.org/2000/svg">
<path d="M11 0C10.298 0 9.5963 0.228342 9.01628 0.685113C9.01588 0.685113 9.01548 0.685113 9.01508 0.685113L1.7474 6.41189C0.645014 7.28067 0 8.60821 0 10.0117V21.0666C0 22.2369 0.968639 23.2055 2.13889 23.2055H19.8611C21.0314 23.2055 22 22.2369 22 21.0666V10.0117C22 8.60821 21.355 7.28067 20.2526 6.41189L12.9837 0.685113C12.4037 0.228342 11.702 0 11 0ZM11 1.82856C11.2993 1.82856 11.5987 1.92803 11.8498 2.12576L19.1187 7.85254C19.7808 8.37466 20.1667 9.1691 20.1667 10.0117V21.0666C20.1667 21.2469 20.0414 21.3722 19.8611 21.3722H18.3333V16.796C18.3333 15.6258 17.3647 14.6571 16.1944 14.6571H15.2778V10.6849C15.2778 9.51465 14.3091 8.54601 13.1389 8.54601H8.86111C7.69086 8.54601 6.72222 9.51465 6.72222 10.6849V14.6571H5.80556C4.63531 14.6571 3.66667 15.6258 3.66667 16.796V21.3722H2.13889C1.95858 21.3722 1.83333 21.2469 1.83333 21.0666V10.0117C1.83333 9.16878 2.21879 8.37346 2.88129 7.85135L10.1502 2.12576C10.4013 1.92803 10.7007 1.82856 11 1.82856ZM8.86111 10.3793H13.1389C13.3192 10.3793 13.4444 10.5046 13.4444 10.6849V14.6571H8.55556V10.6849C8.55556 10.5046 8.68081 10.3793 8.86111 10.3793ZM5.80556 16.4905H10.0833V21.3722H5.5V16.796C5.5 16.6157 5.62525 16.4905 5.80556 16.4905ZM11.9167 16.4905H16.1944C16.3747 16.4905 16.5 16.6157 16.5 16.796V21.3722H11.9167V16.4905Z" fill="white"/>
</svg>
