<svg width="100" height="100" viewBox="0 0 100 100" fill="none" xmlns="http://www.w3.org/2000/svg">
<path d="M84.8029 83H15.1969C12.7419 83 11.2059 80.337 12.4309 78.204L47.2419 17.599C48.4659 15.467 51.5349 15.467 52.7599 17.599L87.5699 78.204C88.7949 80.337 87.2589 83 84.8029 83Z" fill="#8E9DB5"/>
<path d="M57.5642 35L58.1392 36L58.5722 35.751L60.0082 38.251L59.5752 38.5L62.4472 43.5L62.8802 43.251L65.1782 47.251L64.7442 47.5L82.5502 78.5H17.4512L50.0002 21.831L50.0012 21.833L50.4362 21.582L57.9982 34.751L57.5642 35Z" fill="#F9E65C"/>
<path d="M62.5 74.5H37.5C36.948 74.5 36.5 74.052 36.5 73.5V71.5C36.5 70.948 36.948 70.5 37.5 70.5H62.5C63.052 70.5 63.5 70.948 63.5 71.5V73.5C63.5 74.052 63.052 74.5 62.5 74.5Z" fill="#5C769B"/>
<path d="M40.572 65.4391C40.089 65.2111 39.87 64.6391 40.061 64.1301C40.324 63.4311 40.501 62.6621 40.501 61.4121C40.501 59.6281 40.14 58.8231 39.684 57.8021C39.157 56.6251 38.501 55.1601 38.501 52.4781C38.501 50.5031 38.857 49.1881 39.255 48.1631C39.47 47.6091 40.082 47.3451 40.61 47.5941L42.43 48.4541C42.913 48.6821 43.132 49.2551 42.941 49.7631C42.678 50.4611 42.502 51.2301 42.502 52.4781C42.502 54.2621 42.863 55.0671 43.319 56.0881C43.846 57.2651 44.502 58.7301 44.502 61.4121C44.502 63.3871 44.146 64.7021 43.749 65.7281C43.534 66.2821 42.922 66.5471 42.395 66.2981L40.572 65.4391Z" fill="#5C769B"/>
<path d="M49.072 65.4391C48.589 65.2111 48.37 64.6391 48.561 64.1301C48.824 63.4311 49.001 62.6621 49.001 61.4121C49.001 59.6281 48.64 58.8231 48.184 57.8021C47.656 56.6251 47 55.1611 47 52.4781C47 50.5031 47.356 49.1881 47.754 48.1631C47.969 47.6091 48.581 47.3451 49.109 47.5941L50.929 48.4541C51.412 48.6821 51.631 49.2551 51.44 49.7631C51.177 50.4611 51 51.2301 51 52.4781C51 54.2621 51.361 55.0671 51.817 56.0881C52.344 57.2651 53 58.7301 53 61.4121C53 63.3871 52.644 64.7021 52.247 65.7281C52.032 66.2821 51.42 66.5471 50.893 66.2981L49.072 65.4391Z" fill="#5C769B"/>
<path d="M57.572 65.4391C57.089 65.2111 56.87 64.6391 57.061 64.1301C57.324 63.4311 57.501 62.6621 57.501 61.4121C57.501 59.6281 57.14 58.8231 56.684 57.8021C56.157 56.6251 55.501 55.1601 55.501 52.4781C55.501 50.5031 55.857 49.1881 56.255 48.1631C56.47 47.6091 57.082 47.3451 57.61 47.5941L59.43 48.4541C59.913 48.6821 60.132 49.2551 59.941 49.7631C59.678 50.4611 59.502 51.2301 59.502 52.4781C59.502 54.2621 59.863 55.0671 60.319 56.0881C60.846 57.2651 61.502 58.7301 61.502 61.4121C61.502 63.3871 61.146 64.7021 60.749 65.7281C60.534 66.2821 59.922 66.5471 59.395 66.2981L57.572 65.4391Z" fill="#5C769B"/>
<path d="M84.8028 84H15.1968C13.6848 84 12.3298 83.218 11.5718 81.907C10.8108 80.593 10.8078 79.022 11.5648 77.706L46.3758 17.101C47.1298 15.785 48.4848 15 49.9998 15C51.5148 15 52.8708 15.785 53.6258 17.101L88.4358 77.706C89.1918 79.022 89.1888 80.593 88.4288 81.907C87.6708 83.218 86.3148 84 84.8028 84ZM49.9998 17C49.2098 17 48.5028 17.41 48.1088 18.097L13.2978 78.702C12.9018 79.392 12.9028 80.216 13.3018 80.905C13.6988 81.591 14.4068 82 15.1968 82H84.8028C85.5928 82 86.3018 81.591 86.6988 80.905C87.0978 80.216 87.0988 79.392 86.7028 78.702L51.8928 18.097C51.4978 17.41 50.7908 17 49.9998 17Z" fill="#1F212B"/>
<path d="M82.55 78.9991H17.45C17.272 78.9991 17.107 78.9041 17.017 78.7491C16.928 78.5951 16.927 78.4041 17.016 78.2501L49.565 21.5811C49.657 21.4221 49.837 21.3431 50.013 21.3301C50.197 21.3361 50.363 21.4411 50.446 21.6061C50.528 21.7701 50.511 21.9591 50.418 22.1031L18.314 77.9991H81.686L64.3109 47.7481C64.1729 47.5091 64.256 47.2031 64.496 47.0651C64.736 46.9281 65.041 47.0101 65.179 47.2501L82.985 78.2501C83.074 78.4041 83.073 78.5951 82.984 78.7491C82.894 78.9041 82.729 78.9991 82.55 78.9991Z" fill="#1F212B"/>
<path d="M62.4469 44.0007C62.2739 44.0007 62.1049 43.9107 62.0129 43.7497L59.1409 38.7497C59.0029 38.5107 59.0859 38.2047 59.3259 38.0667C59.5659 37.9287 59.8719 38.0117 60.0089 38.2517L62.8809 43.2517C63.0189 43.4907 62.9359 43.7967 62.6959 43.9347C62.6169 43.9797 62.5319 44.0007 62.4469 44.0007Z" fill="#1F212B"/>
<path d="M58.1387 36.5003C57.9657 36.5003 57.7977 36.4103 57.7047 36.2493L57.1297 35.2493C56.9917 35.0103 57.0747 34.7043 57.3147 34.5663C57.5547 34.4293 57.8597 34.5113 57.9977 34.7513L58.5727 35.7513C58.7107 35.9903 58.6277 36.2963 58.3877 36.4343C58.3087 36.4793 58.2237 36.5003 58.1387 36.5003Z" fill="#1F212B"/>
<path d="M62.5 75H37.5C36.673 75 36 74.327 36 73.5V71.5C36 70.673 36.673 70 37.5 70H62.5C63.327 70 64 70.673 64 71.5V73.5C64 74.327 63.327 75 62.5 75ZM37.5 71C37.224 71 37 71.225 37 71.5V73.5C37 73.775 37.224 74 37.5 74H62.5C62.776 74 63 73.775 63 73.5V71.5C63 71.225 62.776 71 62.5 71H37.5Z" fill="#1F212B"/>
<path d="M42.808 66.894C42.594 66.894 42.38 66.846 42.18 66.751L40.36 65.893C39.647 65.557 39.311 64.706 39.594 63.955C39.804 63.393 40 62.694 40 61.413C40 59.737 39.676 59.014 39.228 58.011C38.68 56.788 38 55.27 38 52.48C38 50.293 38.421 48.929 38.788 47.984C38.944 47.583 39.258 47.262 39.648 47.106C40.031 46.953 40.448 46.966 40.822 47.143L42.643 48.003C43.354 48.339 43.69 49.19 43.408 49.941C43.196 50.502 43 51.199 43 52.48C43 54.156 43.324 54.879 43.772 55.882C44.32 57.105 45 58.623 45 61.413C45 63.6 44.579 64.965 44.213 65.91C44.058 66.311 43.744 66.631 43.353 66.787C43.176 66.858 42.992 66.894 42.808 66.894ZM40.193 48.001C40.134 48.001 40.075 48.012 40.019 48.035C39.883 48.089 39.776 48.199 39.72 48.345C39.385 49.209 39 50.459 39 52.48C39 55.056 39.631 56.466 40.139 57.6C40.602 58.634 41 59.524 41 61.413C41 62.562 40.859 63.428 40.529 64.308C40.428 64.575 40.541 64.873 40.785 64.989L42.606 65.847C42.727 65.903 42.86 65.91 42.982 65.859C43.118 65.805 43.224 65.695 43.28 65.549C43.615 64.685 44 63.434 44 61.413C44 58.837 43.369 57.427 42.861 56.293C42.398 55.259 42 54.368 42 52.48C42 51.332 42.141 50.466 42.472 49.588C42.572 49.321 42.46 49.023 42.216 48.907L40.395 48.047C40.33 48.017 40.262 48.001 40.193 48.001Z" fill="#1F212B"/>
<path d="M51.308 66.894C51.094 66.894 50.88 66.846 50.68 66.751L48.86 65.893C48.147 65.557 47.811 64.706 48.094 63.955C48.305 63.392 48.501 62.694 48.501 61.413C48.501 59.737 48.177 59.014 47.729 58.011C47.181 56.788 46.501 55.27 46.501 52.48C46.501 50.293 46.922 48.929 47.289 47.984C47.445 47.583 47.759 47.262 48.149 47.106C48.532 46.953 48.949 46.966 49.323 47.143L51.144 48.003C51.855 48.339 52.191 49.19 51.909 49.941C51.698 50.503 51.502 51.2 51.502 52.48C51.502 54.156 51.826 54.879 52.274 55.882C52.822 57.105 53.502 58.623 53.502 61.413C53.502 63.6 53.081 64.965 52.715 65.91C52.56 66.311 52.246 66.631 51.855 66.787C51.676 66.858 51.492 66.894 51.308 66.894ZM48.693 48.001C48.634 48.001 48.575 48.012 48.519 48.035C48.383 48.089 48.276 48.199 48.22 48.345C47.885 49.209 47.5 50.459 47.5 52.48C47.5 55.056 48.131 56.466 48.639 57.6C49.101 58.634 49.5 59.525 49.5 61.413C49.5 62.562 49.359 63.428 49.029 64.308C48.928 64.575 49.041 64.873 49.285 64.989L51.106 65.847C51.226 65.903 51.36 65.91 51.482 65.859C51.618 65.805 51.724 65.695 51.78 65.549C52.115 64.685 52.5 63.434 52.5 61.413C52.5 58.837 51.869 57.427 51.361 56.293C50.899 55.259 50.5 54.368 50.5 52.48C50.5 51.332 50.641 50.466 50.972 49.588C51.072 49.321 50.96 49.023 50.716 48.907L48.895 48.047C48.83 48.017 48.762 48.001 48.693 48.001Z" fill="#1F212B"/>
<path d="M59.808 66.894C59.594 66.894 59.38 66.846 59.18 66.751L57.36 65.893C56.647 65.557 56.311 64.706 56.594 63.955C56.804 63.393 57 62.694 57 61.413C57 59.737 56.676 59.014 56.228 58.011C55.68 56.788 55 55.27 55 52.48C55 50.293 55.421 48.929 55.788 47.984C55.944 47.583 56.258 47.262 56.648 47.106C57.031 46.953 57.448 46.966 57.822 47.143L59.643 48.003C60.354 48.339 60.69 49.19 60.408 49.941C60.196 50.502 60 51.199 60 52.48C60 54.156 60.324 54.879 60.772 55.882C61.32 57.105 62 58.623 62 61.413C62 63.6 61.579 64.965 61.213 65.91C61.058 66.311 60.744 66.631 60.353 66.787C60.176 66.858 59.992 66.894 59.808 66.894ZM57.193 48.001C57.134 48.001 57.075 48.012 57.019 48.035C56.883 48.089 56.776 48.199 56.72 48.345C56.385 49.209 56 50.459 56 52.48C56 55.056 56.631 56.466 57.139 57.6C57.602 58.634 58 59.524 58 61.413C58 62.562 57.859 63.428 57.529 64.308C57.428 64.575 57.541 64.873 57.785 64.989L59.606 65.847C59.726 65.903 59.86 65.91 59.982 65.859C60.118 65.805 60.224 65.695 60.28 65.549C60.615 64.685 61 63.434 61 61.413C61 58.837 60.369 57.427 59.861 56.293C59.398 55.259 59 54.368 59 52.48C59 51.332 59.141 50.466 59.472 49.588C59.572 49.321 59.46 49.023 59.216 48.907L57.395 48.047C57.33 48.017 57.262 48.001 57.193 48.001Z" fill="#1F212B"/>
</svg>
