<svg width="18" height="24" viewBox="0 0 18 24" fill="none" xmlns="http://www.w3.org/2000/svg">
<path d="M0 0V2H2V6C2 8.54297 3.36719 10.7734 5.40625 12C3.36719 13.2266 2 15.457 2 18V22H0V24H18V22H16V18C16 15.457 14.6328 13.2266 12.5938 12C14.6328 10.7734 16 8.54297 16 6V2H18V0H0ZM4 2H14V6C14 8.77344 11.7734 11 9 11C6.22656 11 4 8.77344 4 6V2ZM5.15625 7C5.60156 8.72266 7.13672 10 9 10C10.8633 10 12.3984 8.72266 12.8438 7H5.15625ZM9 13C11.7734 13 14 15.2266 14 18V22H13C13 19.7891 11.2109 18 9 18C6.78906 18 5 19.7891 5 22H4V18C4 15.2266 6.22656 13 9 13Z" fill="white"/>
</svg>
