<svg width="20" height="20" viewBox="0 0 20 20" fill="none" xmlns="http://www.w3.org/2000/svg">
<path fill-rule="evenodd" clip-rule="evenodd" d="M9.99512 15.4268C9.58112 15.4268 9.24512 15.0908 9.24512 14.6768V12.1398C9.24512 11.7258 9.58112 11.3898 9.99512 11.3898C10.4091 11.3898 10.7451 11.7258 10.7451 12.1398V14.6768C10.7451 15.0908 10.4091 15.4268 9.99512 15.4268" fill="white"/>
<mask id="mask0_1128_29938" style="mask-type:alpha" x="0" y="2" width="20" height="11">
<path fill-rule="evenodd" clip-rule="evenodd" d="M0 2.58002H19.9898V12.891H0V2.58002Z" fill="white"/>
</mask>
<g mask="url(#mask0_1128_29938)">
<path fill-rule="evenodd" clip-rule="evenodd" d="M1.5 9.39302C3.876 10.684 6.872 11.391 9.99 11.391C13.114 11.391 16.113 10.684 18.49 9.39302V6.39102C18.49 5.11602 17.459 4.08002 16.19 4.08002H3.81C2.536 4.08002 1.5 5.11202 1.5 6.38102V9.39302ZM9.99 12.891C6.445 12.891 3.028 12.033 0.371 10.477C0.141 10.343 0 10.097 0 9.83002V6.38102C0 4.28502 1.709 2.58002 3.81 2.58002H16.19C18.286 2.58002 19.99 4.28902 19.99 6.39102V9.83002C19.99 10.097 19.848 10.343 19.619 10.477C16.962 12.033 13.542 12.891 9.99 12.891V12.891Z" fill="white"/>
</g>
<mask id="mask1_1128_29938" style="mask-type:alpha" x="5" y="0" width="10" height="5">
<path fill-rule="evenodd" clip-rule="evenodd" d="M5.74512 0.000244141H14.2451V4.07614H5.74512V0.000244141Z" fill="white"/>
</mask>
<g mask="url(#mask1_1128_29938)">
<path fill-rule="evenodd" clip-rule="evenodd" d="M13.4951 4.07612C13.0811 4.07612 12.7451 3.74012 12.7451 3.32612V2.96012C12.7451 2.15512 12.0901 1.50012 11.2851 1.50012H8.70512C7.90012 1.50012 7.24512 2.15512 7.24512 2.96012V3.32612C7.24512 3.74012 6.90912 4.07612 6.49512 4.07612C6.08112 4.07612 5.74512 3.74012 5.74512 3.32612V2.96012C5.74512 1.32812 7.07312 0.00012207 8.70512 0.00012207H11.2851C12.9171 0.00012207 14.2451 1.32812 14.2451 2.96012V3.32612C14.2451 3.74012 13.9091 4.07612 13.4951 4.07612" fill="white"/>
</g>
<path fill-rule="evenodd" clip-rule="evenodd" d="M15.7946 19.7402H4.19457C2.11957 19.7402 0.372574 18.1192 0.215574 16.0492L0.025574 13.5402C-0.00542596 13.1272 0.304574 12.7662 0.717574 12.7352C1.13257 12.7202 1.49057 13.0132 1.52257 13.4272L1.71157 15.9352C1.80957 17.2272 2.89957 18.2402 4.19457 18.2402H15.7946C17.0896 18.2402 18.1806 17.2272 18.2776 15.9352L18.4676 13.4272C18.4996 13.0132 18.8666 12.7192 19.2726 12.7352C19.6856 12.7662 19.9946 13.1272 19.9636 13.5402L19.7736 16.0492C19.6166 18.1192 17.8696 19.7402 15.7946 19.7402" fill="white"/>
</svg>
